<?xml version="1.0" standalone="no"?>
<!DOCTYPE svg PUBLIC "-//W3C//DTD SVG 1.1//EN" "http://www.w3.org/Graphics/SVG/1.1/DTD/svg11.dtd" >
<svg xmlns="http://www.w3.org/2000/svg">
<metadata>
Created by FontForge 20120731 at Tue Apr 11 19:39:06 2017
 By admin
</metadata>
<defs>
<font id="iconfont" horiz-adv-x="1024" >
  <font-face 
    font-family="iconfont"
    font-weight="500"
    font-stretch="normal"
    units-per-em="1024"
    panose-1="2 0 6 3 0 0 0 0 0 0"
    ascent="896"
    descent="-128"
    x-height="792"
    bbox="-0.28 -155 2335 896.205"
    underline-thickness="0"
    underline-position="0"
    unicode-range="U+0078-E733"
  />
<missing-glyph 
 />
    <glyph glyph-name=".notdef" 
 />
    <glyph glyph-name=".notdef" 
 />
    <glyph glyph-name=".null" horiz-adv-x="0" 
 />
    <glyph glyph-name="nonmarkingreturn" horiz-adv-x="341" 
 />
    <glyph glyph-name="x" unicode="x" horiz-adv-x="1001" 
d="M281 543q-27 -1 -53 -1h-83q-18 0 -36.5 -6t-32.5 -18.5t-23 -32t-9 -45.5v-76h912v41q0 16 -0.5 30t-0.5 18q0 13 -5 29t-17 29.5t-31.5 22.5t-49.5 9h-133v-97h-438v97zM955 310v-52q0 -23 0.5 -52t0.5 -58t-10.5 -47.5t-26 -30t-33 -16t-31.5 -4.5q-14 -1 -29.5 -0.5
t-29.5 0.5h-32l-45 128h-439l-44 -128h-29h-34q-20 0 -45 1q-25 0 -41 9.5t-25.5 23t-13.5 29.5t-4 30v167h911zM163 247q-12 0 -21 -8.5t-9 -21.5t9 -21.5t21 -8.5q13 0 22 8.5t9 21.5t-9 21.5t-22 8.5zM316 123q-8 -26 -14 -48q-5 -19 -10.5 -37t-7.5 -25t-3 -15t1 -14.5
t9.5 -10.5t21.5 -4h37h67h81h80h64h36q23 0 34 12t2 38q-5 13 -9.5 30.5t-9.5 34.5q-5 19 -11 39h-368zM336 498v228q0 11 2.5 23t10 21.5t20.5 15.5t34 6h188q31 0 51.5 -14.5t20.5 -52.5v-227h-327z" />
    <glyph glyph-name="dingwei" unicode="&#xe60d;" 
d="M817 479q0 118 -84.5 201.5t-204.5 83.5t-204.5 -83.5t-84.5 -201.5q0 -76 39 -142v0l245 -489q2 -3 5 -3t4 3l246 489v0q39 66 39 142zM528 337q-60 0 -102.5 41.5t-42.5 100.5t42.5 100.5t102.5 41.5t102 -41.5t42 -100.5t-42 -100.5t-102 -41.5v0z" />
    <glyph glyph-name="tuichu" unicode="&#xe600;" 
d="M258 361h550l-122 -123q-7 -7 -7 -16.5t6.5 -16.5t16.5 -7t17 7l160 162q8 7 7 17q1 11 -7 18l-160 162q-7 6 -17 6t-16.5 -6.5t-6.5 -16.5t7 -17l122 -122h-550q-10 0 -17 -7t-7 -16.5t7 -16.5t17 -7zM746 640q0 19 -13.5 33t-32.5 14h-466q-19 0 -32.5 -14t-13.5 -33
v-512q0 -19 13.5 -33t32.5 -14h466q19 0 32.5 14t13.5 33v93h47v-93q0 -39 -27.5 -66t-65.5 -27h-466q-38 0 -65.5 27t-27.5 66v512q0 39 27.5 66t65.5 27h466q38 0 65.5 -27t27.5 -66v-93h-47v93z" />
    <glyph glyph-name="check" unicode="&#xe617;" 
d="M680 457l-249 -251l-95 94l-35 -35l112 -112q9 -9 17 -9q9 0 18 9l267 268zM512 716q-172 0 -294 -122t-122 -294t122 -294t294 -122t294 122t122 294t-122 294t-294 122zM512 -81q-103 0 -191 51t-139 139t-51 191t51 191t139 139t191 51t191 -51t139 -139t51 -191
t-51 -191t-139 -139t-191 -51z" />
    <glyph glyph-name="icon12" unicode="&#xe611;" 
d="M782 -36h-542h-8q-4 1 -7 2q-5 1 -8 2t-7 2q-4 2 -7 4q-3 1 -6 4l-6 4q-2 3 -5 5q-2 3 -5 6q-2 2 -4 6q-2 2 -4 6q-1 3 -3 7t-3 7.5t-1.5 7.5t-0.5 8q-1 4 -1 8v574q0 4 1 8q0 4 1 8q0 4 2 8q0 3 2 6q2 5 3 7q2 5 4 7l4 6q3 3 5 6q3 3 5.5 5t5.5 4l6 4t7 3.5t7 2.5
q4 2 7 2q4 1 8 1.5t8 0.5h51q8 0 13.5 -6t5.5 -14t-5.5 -14t-13.5 -6h-51h-4q-1 0 -3 -0.5t-4 -0.5q-1 -1 -3 -2q-1 0 -3 -1t-3 -2t-2.5 -2t-2.5 -3l-3 -3l-2 -3l-2 -3q0 -2 -1 -4q-1 -1 -1 -3q-1 -2 -1 -3q-1 -2 -1 -4v-5v-574v-4t0.5 -4t1.5 -4q0 -2 1 -4t2 -3q1 -2 1 -3
q1 -2 2 -3l3 -3q1 -2 2 -3q2 -1 3.5 -2l3 -2t3 -1.5t2.5 -0.5q2 -1 4 -1q2 -1 3.5 -1h3.5h542h4q1 0 3 0.5t3 0.5l4 2q1 0 2.5 1t3.5 2q1 1 3 2q1 2 2 3l3 3q1 1 1 2q2 2 2.5 3.5t1.5 3.5t1.5 4t0.5 3q1 2 1 5v4v574v4q0 3 -0.5 4.5t-1 3.5t-1 3.5t-2.5 3.5q0 2 -1 3
q-1 2 -2 3l-3 3q-1 2 -2.5 3t-2.5 2t-3 2t-3.5 1.5t-3.5 1.5h-3q-1 1 -3 1h-4h-50q-9 0 -14.5 6t-5.5 14t5.5 14t14.5 6h50q4 0 8 -0.5t8 -1.5q3 0 7 -1.5t7.5 -3t6.5 -3.5l6 -4l6 -4q2 -3 5 -5q2 -3 5 -6t4 -6q2 -3 4 -7q2 -3 3 -7q1 -3 3 -6q1 -5 1 -8l2 -8v-8v-574
q0 -5 -0.5 -8.5t-1.5 -7.5q0 -3 -1 -7q-2 -4 -3 -8l-3 -6t-4 -7q-1 -3 -4 -6q-3 -4 -5 -6l-5 -5t-6 -4q-3 -3 -6 -4.5l-7 -3.5q-3 -1 -7 -3q-3 -1 -7 -1l-8 -2h-8v0zM384 597q-21 0 -35 17q-13 16 -8 37l2 7q6 24 9 34q3 14 18 26t31 12h23h9v0q7 27 9 36q4 14 19 25t33 11
h21h13q18 0 33 -11.5t19 -25.5q6 -25 9 -35h10h17q23 0 37 -12t18 -26l10 -42q5 -20 -8 -36q-13 -17 -34 -17h-21h-233h-1zM424 690h-23q-2 0 -6 -3t-5 -6q-1 -5 -8 -33l-2 -7q0 -2 1 -3q1 -2 3 -2v-20v20q12 1 234 0h21q2 1 3 2v3l-10 41v0q-4 8 -16 8h-17h-14q-12 0 -21 7
t-12 19q-3 11 -11 39q-3 7 -13 7h-13h-21q-10 0 -13 -8q-1 -4 -9 -34l-1 -4q-6 -26 -34 -26h-13zM532 92q0 -9 -6 -15t-15 -6t-15 6t-6 15v87h-94q-6 0 -10 4t-4 10t4 10t10 4h94v61h-94q-6 0 -10 4t-4 10t4 10t10 4h93l-124 179q-5 7 -3.5 15.5t9.5 13.5q6 5 14.5 3.5
t14.5 -8.5l108 -156q1 -3 3 -3t3 3l108 156q5 7 13.5 8.5t16 -3.5t9 -13.5t-3.5 -15.5l-124 -179h93q6 0 10 -4t4 -10t-4 -10t-10 -4h-94v-61h94q6 0 10 -4t4 -10t-4 -10t-10 -4h-94v-87z" />
    <glyph glyph-name="wodeqianbao" unicode="&#xe6a2;" 
d="M744 13h-464q-57 0 -98 41t-41 98v464q0 57 41 98t98 41h278q45 0 80.5 -26t50.5 -67h55q57 0 98 -40.5t41 -98.5v-371q0 -57 -41 -98t-98 -41v0v0v0zM558 708h-278q-35 0 -61 -23t-30 -58q40 35 91 35h358q-12 21 -33 33.5t-47 12.5v0v0zM836 430q0 10 -6.5 17t-16.5 7
h-231q-10 0 -17 -7t-7 -17v-139q0 -9 7 -16t17 -7h231q10 0 16.5 7t6.5 16v139zM836 222h-278q-19 0 -32.5 13.5t-13.5 32.5v186q0 19 13.5 32.5t32.5 13.5h278v23q0 38 -27 65.5t-65 27.5h-464q-38 0 -65 -27.5t-27 -65.5v-371q0 -38 27 -65t65 -27h464q38 0 65 27t27 65
v70zM605 384h46v-46h-46v46z" />
    <glyph glyph-name="jindu" unicode="&#xe648;" 
d="M618 14v52h159q22 0 37.5 15.5t15.5 37.5v159h52v-159q0 -43 -31 -74t-74 -31h-159v0zM247 14q-43 0 -74 31t-31 74v159h52v-159q0 -22 15.5 -37.5t37.5 -15.5h159v-52h-159zM619 225l105 159l-105 159h52l105 -159l-105 -159h-52zM460 225l105 159l-105 159h52l105 -159
l-105 -159h-52zM301 225l106 159l-106 159h52l106 -159l-106 -159h-52zM830 490v159q0 22 -15.5 37.5t-37.5 15.5h-159v52h159q43 0 74 -30.5t31 -74.5v-159h-52zM142 490v159q0 44 31 74.5t74 30.5h159v-52h-159q-22 0 -37.5 -15.5t-15.5 -37.5v-159h-52zM777 754
q43 0 74 -31t31 -74v-158h-51v158q0 22 -16 38t-38 16h-158v51h158zM405 754v-51h-158q-22 0 -38 -16t-16 -38v-158h-51v158q0 43 31 74t74 31h158zM671 542l105 -158l-105 -158h-52l106 158l-106 158h52zM512 542l105 -158l-105 -158h-52l106 158l-106 158h52zM353 542
l105 -158l-105 -158h-51l105 158l-105 158h51zM882 277v-158q0 -43 -31 -74t-74 -31h-158v51h158q22 0 38 16t16 38v158h51zM193 277v-158q0 -22 16 -38t38 -16h158v-51h-158q-43 0 -74 31t-31 74v158h51zM777 755h-159v-53h159q22 0 37.5 -15.5t15.5 -37.5v-159h53v159
q0 44 -31 75t-75 31v0zM406 755h-159q-44 0 -75 -31t-31 -75v-159h53v159q0 22 15.5 37.5t37.5 15.5h159v53zM671 543h-53l106 -159l-106 -159h53l106 159zM512 543h-53l106 -159l-106 -159h53l106 159zM353 543h-53l106 -159l-106 -159h53l106 159zM883 278h-53v-159
q0 -22 -15.5 -37.5t-37.5 -15.5h-159v-53h159q44 0 75 31t31 75v159zM194 278h-53v-159q0 -44 31 -75t75 -31h159v53h-159q-22 0 -37.5 15.5t-15.5 37.5v159z" />
    <glyph glyph-name="suo" unicode="&#xe60a;" 
d="M735 -32h-461q-60 0 -103.5 43.5t-43.5 105.5l1 288q0 42 30 72t73 30h549q43 0 73 -30t30 -72l-1 -288q0 -62 -43 -105.5t-104 -43.5zM231 466q-26 0 -44 -18t-18 -43l-1 -288q0 -45 31 -76.5t75 -31.5h461q44 0 75 31.5t31 76.5l1 288q0 25 -18 43t-44 18h-549z
M291 491h-40v81q0 97 68.5 165.5t165.5 68.5h34q97 0 165.5 -68.5t68.5 -165.5v-77h-41v77q0 80 -56.5 136.5t-136.5 56.5h-34q-80 0 -137 -56.5t-57 -136.5v-81zM576 284q0 30 -21 51t-51 21t-51 -21t-21 -51q0 -24 14 -43t36 -26v-90q0 -10 6.5 -16.5t15.5 -6.5t15 6.5
t6 16.5v90q22 7 36.5 26t14.5 43z" />
    <glyph glyph-name="kefu" unicode="&#xe6ee;" 
d="M530 834q25 -2 26 -2q85 -10 157 -52q142 -85 186 -244q13 -47 13 -100v-50.5v-50.5q0 -24 -11 -46q0 -2 -5 -19q-32 -106 -113.5 -181t-189.5 -97q-13 -2 -30 -5q-4 0 -6 -5q-9 -23 -29 -36t-45 -12q-24 1 -43 16.5t-25 39.5q-8 28 5.5 53.5t40.5 35.5t54 -0.5t40 -37.5
q2 -4 7 -4q181 31 265 195l2 3q-10 -1 -11 -1q-43 -2 -74.5 27.5t-31.5 72.5v100q0 43 31 72.5t75 27.5q1 0 28 -6l3 -1q-12 48 -40.5 92.5t-69.5 81t-98 59t-120 24.5q-65 1 -124.5 -19.5t-103.5 -57t-74.5 -83t-43.5 -96.5q20 4 21 5q39 7 73.5 -17t40.5 -64q2 -10 2 -20
v-97q0 -37 -22 -64t-58 -35q-41 -9 -76 15t-42 66q-2 9 -2 17v105q5 192 156 312q75 59 174 77q2 0 47 5q1 0 5 1h36zM262 384v49q0 22 -14.5 36.5t-35.5 14.5t-35.5 -14.5t-14.5 -36.5v-98q0 -7 1 -12q5 -18 20.5 -29.5t33.5 -9.5q19 2 32 16.5t13 33.5v50zM762 384v-49
t1 -12q5 -19 20.5 -30t33.5 -9q20 3 32.5 17t12.5 33v100q0 6 -1 11q-5 19 -20 30t-34 9t-32 -16.5t-13 -33.5v-50z" />
    <glyph glyph-name="iconfontbook" unicode="&#xe60c;" 
d="M600 192q-29 0 -49.5 23t-20.5 52v64q0 28 20 47t50 19h420v-205h-420zM652 352q-22 0 -37 -15.5t-15 -37t15 -37t37 -15.5t37.5 15.5t15.5 37t-15.5 37t-37.5 15.5zM495 337v-70q0 -44 31 -78.5t74 -34.5h358v-132q0 -43 -35 -77.5t-78 -34.5h-736q-43 0 -74 34t-31 78
v666q0 44 31.5 78.5t73.5 34.5h338l-83 -60h-272q-24 0 -38.5 -10t-14.5 -30.5t14.5 -30.5t38.5 -10h866v-223h-358q-44 0 -74.5 -28.5t-30.5 -71.5zM106 578h-41v-81h41v81zM106 416h-41v-81h41v81zM106 254h-41v-82h41v82zM106 91h-41v-81h41v81zM284 681l412 182l79 -182
h-491zM762 801h83q8 0 17 -3.5t18 -11.5t15 -14t15 -17t12 -14h-143z" />
    <glyph glyph-name="iconset0142" unicode="&#xe629;" 
d="M545 586q-22 0 -37 -15q-16 -9 -16 -33q0 -19 16 -34q24 -16 37 -16q23 0 38 16q15 9 15 34q0 19 -15 33q-14 15 -38 15zM561 219q-19 0 -23 4q-7 7 -7 19t3 19q0 4 2 10.5t2 8.5l23 74q3 8 3 23v19q0 24 -19 38q-15 15 -48 15q-8 0 -38 -7q-23 -6 -42 -16l-7 -22
q2 0 6.5 1.5t9.5 1.5q4 0 9.5 2t8.5 2q7 0 14.5 -2t8.5 -2q7 -7 7 -18.5t-3 -18.5q0 -4 -2 -11t-2 -8l-23 -75q-3 -7 -3 -22v-19q0 -11 4.5 -20t14.5 -18q15 -15 48 -15q26 0 38 3q20 6 42 15l7 23q-1 0 -6 -2t-10 -2h-18zM508 785q-110 0 -203.5 -53.5t-147.5 -146
t-54 -201.5t54 -201.5t146.5 -146t201.5 -53.5t202 53.5t148 146t55 201.5t-54 201.5t-146.5 146t-201.5 53.5zM508.5 17q-99.5 0 -184.5 49t-134.5 133.5t-49.5 184.5t49.5 184.5t134.5 133.5t184.5 49t184 -49t134 -133.5t49.5 -184.5t-49.5 -184.5t-134 -133.5t-184 -49z
" />
    <glyph glyph-name="guanbi2fill" unicode="&#xe724;" 
d="M512 832q-185 0 -316.5 -131.5t-131.5 -316.5t131.5 -316.5t316.5 -131.5t316.5 131.5t131.5 316.5t-131.5 316.5t-316.5 131.5zM695 246q9 -9 9 -22.5t-9.5 -23t-22.5 -9.5t-23 10l-137 138l-138 -137q-10 -9 -23 -9t-22.5 9.5t-9.5 22.5t10 23l138 136l-138 138
q-9 9 -9 22.5t9.5 23t22.5 9.5t23 -10l137 -138l138 137q10 9 23 9t22.5 -9.5t9.5 -22.5t-10 -23l-138 -136z" />
    <glyph glyph-name="guanbi2" unicode="&#xe726;" 
d="M512 -64q-185 0 -316.5 131.5t-131.5 316.5t131.5 316.5t316.5 131.5t316.5 -131.5t131.5 -316.5t-131.5 -316.5t-316.5 -131.5zM512 768q-104 0 -192.5 -51.5t-140 -140t-51.5 -192.5t51.5 -192.5t140 -140t192.5 -51.5t192.5 51.5t140 140t51.5 192.5t-51.5 192.5
t-140 140t-192.5 51.5zM557 383l138 136q10 10 10 23t-9.5 22.5t-22.5 9.5t-23 -9l-138 -137l-137 137q-9 9 -22 9t-22.5 -9t-9.5 -22.5t9 -22.5l136 -137l-137 -136q-9 -9 -9.5 -22.5t9 -23t22.5 -9.5q14 0 23 10l138 136l138 -140q10 -9 23 -9t22.5 9.5t9.5 22.5t-9 23z
" />
    <glyph glyph-name="icon01" unicode="&#xe602;" 
d="M822 500q0 128 -91 219t-219 91t-219 -91t-91 -219q0 -85 43 -157t114 -113v-187q0 -19 13.5 -32t32.5 -13h214q19 0 32.5 13t13.5 32v187q71 41 114 113t43 157zM596 61h-166v54h166v-54zM430 170v41h161v0h5v-41h-166zM512 261q-99 0 -169 70t-70 169t70 169t169 70
t169 -70t70 -169t-70 -169t-169 -70z" />
    <glyph glyph-name="5" unicode="&#xe625;" 
d="M511.5 777q-106.5 0 -197 -52.5t-143 -143t-52.5 -197.5q0 -122 69 -223l4.5 -4.5t11 -6t16.5 2.5q7 5 9 12.5t0 12.5l-3 5q-17 25 -35 66q-27 65 -27 135.5t27 135.5q27 62 75 110t110 75q65 27 136 27t135 -27q55 -23 99 -64l20 -19q42 -45 66 -102q28 -65 28 -136
t-28 -135q-26 -63 -74 -111q-7 -6 -14 -13q-10 73 -68 124q-32 30 -74 45q31 22 49 56t18 73q0 65 -46 111.5t-111 46.5t-111.5 -46.5t-46.5 -111.5q0 -39 18 -73t49 -56q-41 -15 -74 -45q-69 -62 -69 -150q0 -11 1 -20q1 -5 4 -10l9 -10q99 -68 220 -68q106 0 196.5 53
t143.5 143.5t53 197t-53 197t-143.5 143t-197 52.5zM399 423.5q0 46.5 33 79.5t79.5 33t79.5 -33t33 -79.5t-33 -79.5t-79.5 -33t-79.5 33t-33 79.5zM512 36q-71 0 -136 28q-27 12 -53 28v7q0 69 55.5 118t133.5 49t133 -49t55 -118v-7q-25 -17 -53 -28q-64 -28 -135 -28v0z
" />
    <glyph glyph-name="iconfontyishiyong" unicode="&#xe725;" horiz-adv-x="1025" 
d="M221 452l132 -35l27 99l-171 45l-8 -29l138 -37l-11 -40l-99 27l5 19l-32 9l-27 -98q-10 -35 28 -45l103 -27q35 -10 46 13q8 17 16 36q-13 7 -30 17q-2 -5 -5 -15q-4 -8 -5 -11q-6 -17 -26 -10l-80 21q-17 4 -12 20zM494 488l-29 16q-25 -48 -57 -81q-3 -21 -6 -43
q11 8 21 17l-24 -89l28 -8l39 146q16 21 28 42zM566 428l56 -15l7 26l-56 14l6 20l-32 8l-5 -19l-54 14l-7 -26l54 -14l-3 -14l-51 14l-19 -71l18 -5l-22 -10q8 -15 15 -27q-14 -3 -38 -1l12 -30q36 2 51 8q23 -18 73 -37q5 8 15 19q2 3 4 5q-46 13 -67 27q11 11 18 29
l24 -6l-1 -7l28 -7l21 78l-51 13zM500 334q-11 11 -18 25l30 -8q-5 -11 -12 -17zM519 375l-22 6l6 23l22 -6zM578 384l-6 -23l-24 7l7 22zM656 343q-9 -33 -17 -48q-8 -16 -24 -31l18 -18q4 -3 6 -5q27 24 35 53l41 -11l-14 -51l32 -9l13 51l42 -11l-4 -17q-3 -12 -16 -7
q-8 2 -20 6q0 -15 -1 -29q19 -5 29 -7q30 -9 37 21l43 160l-175 46zM775 380l42 -11l-7 -25l-42 11zM760 327l43 -11l-7 -25l-42 11zM704 399l40 -11l-7 -25l-40 11zM687 334l3 12l39 -11l-6 -25l-40 11q1 2 2 6.5t2 6.5zM512 616q57 0 106 -25t81 -69l30 -8
q-34 56 -91.5 89t-125.5 33q-66 0 -123 -31l30 -8q44 19 93 19zM665 629l16 -13l5 20l18 10l-18 11l-5 20l-16 -13l-21 1l8 -19l-8 -18zM766 575l-18 12l-2 -20l-17 -12l20 -10l7 -19l14 14h21l-10 19l6 19zM512 747q125 0 223 -75.5t129 -193.5l23 -6q-31 128 -135.5 211.5
t-239.5 83.5q-81 0 -153.5 -31.5t-126.5 -88.5l22 -6q51 50 117.5 78t140.5 28zM383 673l-17 12l-3 -21l-18 -12l19 -9l6 -20l15 15l21 1l-9 18l7 20zM512 21q-125 0 -223 75.5t-129 193.5l-23 6q31 -128 135.5 -211.5t239.5 -83.5q81 0 153.5 31.5t126.5 88.5l-22 6
q-51 -50 -117.5 -78t-140.5 -28zM539 702l-12 16l-10 -19l-20 -7l15 -14v-20l19 10l20 -6l-3 20l12 17zM658 95l17 -12l4 21l17 12l-19 9l-6 20l-15 -15l-21 -1l10 -18l-7 -20zM994 422l-880 235q-16 5 -30.5 -3.5t-19.5 -24.5l-63 -234q-4 -16 4.5 -30.5t24.5 -18.5
l880 -235q16 -5 30.5 3.5t19.5 24.5l63 234q4 16 -4.5 30.5t-24.5 18.5zM1000 368l-57 -214q-3 -12 -14 -18.5t-23 -2.5l-861 229q-12 4 -18.5 14.5t-2.5 23.5l57 214q3 12 14 18.5t23 2.5l861 -229q12 -4 18.5 -14.5t2.5 -23.5zM256 194l16 -13l4 20l18 10l-19 11l-6 20
l-15 -13l-21 1l9 -19l-7 -19zM388 129l-16 13l-5 -19l-18 -11l18 -10l5 -20l16 13l21 -2l-8 19l8 19zM605 171q-44 -19 -93 -19q-57 0 -106 25t-81 69l-30 8q34 -56 91.5 -89t125.5 -33q66 0 123 31zM512 67l12 -16l10 18l20 7l-15 14v21l-19 -10l-20 6l4 -21l-13 -16z" />
    <glyph glyph-name="chouzhoushangyeyinxing" unicode="&#xe67a;" 
d="M493 818q45 2 81.5 -10.5t54.5 -35.5q-6 -9 -15 -19t-22.5 -23.5t-28.5 -23.5t-31 -17.5t-34 -7t-34 9.5l-1 1l-1 1l-1 1l-1 1l-1 1l-1 1l-1 1l-1 1l-1 1l-1 1l-1 1l-1 1l-1 1l-1 1l-1 1l-1 1l-1 1l-1 1l-1 1l-1 1l-1 1l-1 1l-1 1l-1 1l-1 1l-1 1l-1 1l-1 1l-1 1l-1 1
l-1 1l-1 1l-1 1l-1 1l-1 1l-1 1l-1 1l-1 1l-1 1l-1 1l-1 1l-1 1l-1 1l-1 1l-1 1l-1 1l-1 1l-1 1l-1 1l-1 2l-1 1l-1 1l-1 1l-1 1l-1 1l-1 1l-1 1l-1 1l-1 1l-1 1l-1 1l-1 1l-1 1l-1 1l-1 1l-1 1l-1 1l-1 1l-1 1l-1 1l-1 1l-1 1l-1 1l-1 1l-1 1l-2 1q1 2 4 5.5t5 5.5
q39 21 50 29q20 4 47 10zM637 763l6 -4t6 -5.5t4.5 -6t4.5 -7t4 -6.5t3.5 -7.5t3.5 -6.5q50 -99 -29 -203q-26 25 -82 81q-5 43 -4 82l48 48zM378 761q84 -61 84 -120t-84 -121q-35 28 -42.5 74.5t5.5 90t37 76.5zM491 596q29 0 51 -9t33 -20t27 -29t29 -28q-1 -2 -3.5 -5
t-3.5 -4q-4 -2 -11 -6q-29 -13 -44.5 -19t-41 -11.5t-49.5 -0.5t-51 19l-7.5 3.5t-11.5 6t-10 6t-8.5 7.5t-2.5 7q11 12 25 25.5t26 25.5t24 25q6 1 16 3.5t13 3.5zM236 562q45 1 81.5 -11t55.5 -36q-7 -9 -15.5 -19t-22 -23.5t-28.5 -23.5t-31.5 -17t-34.5 -7t-33 9
q-27 27 -78 77l9 11q9 5 26 15t25 14q12 3 46 11zM748 562q45 1 81.5 -11t54.5 -36q-7 -9 -15.5 -19t-22 -23.5t-28.5 -23.5t-31.5 -17t-34 -7t-33.5 9q-15 16 -42.5 43t-34.5 34q1 2 4 5.5t5 5.5q4 3 22 13t28 16q18 4 47 11zM380 506l6 -4t6 -5.5t5 -5.5t4.5 -7l3.5 -7
t4 -7.5t3 -6.5q50 -99 -28 -203q-13 12 -27 26t-29.5 28.5t-26.5 26.5q-5 44 -4 83q15 14 42.5 42t40.5 40zM891 506q4 -2 7 -4t5.5 -5.5t4.5 -5.5t4.5 -7t4 -7t4 -7.5t3.5 -6.5q50 -99 -29 -203q-12 12 -40 39t-43 42q-4 44 -3 83q28 27 82 82zM121 504q84 -61 84 -119.5
t-84 -120.5q-34 27 -42 74t5 90t37 76zM633 504q84 -61 84 -119.5t-84 -120.5q-35 27 -42.5 74t5.5 90t37 76zM235 339q29 1 50.5 -8t32.5 -20.5t27.5 -29.5t29.5 -28q-7 -8 -8 -9q-3 -2 -11 -5q-29 -14 -44.5 -20t-41 -11.5t-49.5 -0.5t-51 19l-7 3.5t-11 6t-10 6.5t-9 7.5
t-3 7.5l34.5 34.5t41.5 40.5q5 1 15.5 3.5t13.5 3.5zM746 339q29 1 51 -8t33 -20.5t27 -29.5t29 -28q-6 -7 -7 -9q-4 -2 -11 -5q-29 -14 -45 -20t-41 -11.5t-49.5 -0.5t-51.5 19l-7 3.5t-11 6t-10 6.5t-8.5 7.5t-2.5 7.5q12 12 37.5 37t37.5 38q5 1 14.5 3.5t14.5 3.5z
M491 307q45 1 81.5 -11t55.5 -36q-7 -9 -16 -19t-22 -23.5t-28 -23.5t-31.5 -17t-34.5 -6.5t-34 8.5q-13 13 -38.5 39t-38.5 39q3 3 9 10q6 3 16 9.5t19 11t16 8.5q7 2 22.5 5.5t23.5 5.5zM635 251q3 -1 6 -3.5t6 -5.5t5 -5.5t4.5 -7.5l3.5 -7t3.5 -7.5t3.5 -6.5
q50 -99 -29 -203q-14 15 -42.5 42t-39.5 39q-5 44 -4 83q29 28 83 82zM376 249q84 -61 84 -119.5t-84 -120.5q-35 27 -42.5 74t5.5 90t37 76zM489 84q29 1 51 -8t33 -20.5t27.5 -29.5t28.5 -28q0 -1 -2.5 -4t-4.5 -5q-3 -2 -11 -5q-29 -14 -44.5 -20t-41 -11.5t-49.5 -0.5
t-51 19l-7.5 3.5t-11.5 6t-9.5 6.5t-8.5 7.5t-3 7.5q26 25 76 75q18 5 28 7z" />
    <glyph glyph-name="yijianfankui" unicode="&#xe6c9;" horiz-adv-x="1027" 
d="M729 599l-430 52q-41 0 -78 -34t-57.5 -82t-20.5 -92v-78q0 -44 20.5 -89t57.5 -75.5t78 -30.5l278 25l169 -143l23 162h-1q51 13 84 55t33 96v78q0 65 -45.5 110.5t-110.5 45.5zM804 373q0 -33 -25.5 -62t-59.5 -46v0l-4 -135l-120 112l-44 -3l-228 -20q-51 0 -90 50
t-39 104v62q0 54 39 109t90 55l353 -41q53 0 90.5 -36.5t37.5 -86.5v-62z" />
    <glyph glyph-name="buzou1" unicode="&#xe614;" 
d="M512 881q-101 0 -193 -39.5t-158.5 -106t-106 -158.5t-39.5 -193t39.5 -193t106 -158.5t158.5 -106t193 -39.5t193 39.5t158.5 106t106 158.5t39.5 193t-39.5 193t-106 158.5t-158.5 106t-193 39.5zM649 142h-272v52h106v360l-109 -31v55l169 49v-433h106v-52z" />
    <glyph glyph-name="buzou2" unicode="&#xe615;" 
d="M512 881q-101 0 -193 -39.5t-158.5 -106t-106 -158.5t-39.5 -193t39.5 -193t106 -158.5t158.5 -106t193 -39.5t193 39.5t158.5 106t106 158.5t39.5 193t-39.5 193t-106 158.5t-158.5 106t-193 39.5zM655 196v-54h-290v53l139 138q57 57 76 91q20 33 20 69q0 40 -23 62
q-23 21 -66 21q-63 0 -122 -54v61q57 44 132 44q64 0 101 -35t37 -93q0 -45 -23 -87q-24 -43 -91 -109l-109 -106v-1h219z" />
    <glyph glyph-name="buzou3" unicode="&#xe616;" 
d="M512 881q-101 0 -193 -39.5t-158.5 -106t-106 -158.5t-39.5 -193t39.5 -193t106 -158.5t158.5 -106t193 -39.5t193 39.5t158.5 106t106 158.5t39.5 193t-39.5 193t-106 158.5t-158.5 106t-193 39.5zM603 180q-46 -39 -122 -39q-67 0 -107 25v62q48 -38 109 -38
q48 0 76.5 24t28.5 64q0 89 -128 89h-39v50h37q114 0 114 84q0 77 -87 77q-49 0 -93 -33v56q46 27 108 27q60 0 96.5 -31.5t36.5 -81.5q0 -93 -94 -119v-2q51 -5 80 -36q30 -30 30 -76q0 -63 -46 -102z" />
    <glyph glyph-name="buzou4" unicode="&#xe618;" 
d="M512 881q-101 0 -193 -39.5t-158.5 -106t-106 -158.5t-39.5 -193t39.5 -193t106 -158.5t158.5 -106t193 -39.5t193 39.5t158.5 106t106 158.5t39.5 193t-39.5 193t-106 158.5t-158.5 106t-193 39.5zM687 265h-62v-126h-59v126h-227v40l215 320h71v-311h62v-49zM547 530
l-144 -216h163v204q0 21 1 50h-1q-5 -13 -19 -38z" />
    <glyph glyph-name="7tian" unicode="&#xe60b;" 
d="M649 510q3 2 5 6l1 2q1 4 1 9q0 11 -7 18t-18 7h-198q-11 0 -18.5 -7t-7.5 -17.5t7.5 -18t18.5 -7.5h172l-18 -23q-95 -127 -140 -258q-1 -3 -2 -5v0q-1 -5 0 -9q1 -11 9 -17.5t19 -4.5q14 1 20 15l1 1q0 2 1 5q42 137 153 302zM853 555l-1 2q-5 18 -25 18
q-10 0 -17.5 -7.5t-7.5 -17.5q0 -7 3 -12q38 -72 38 -155q0 -90 -44.5 -166.5t-121 -121t-166.5 -44.5t-166.5 44.5t-121 121t-44.5 166.5t44.5 166.5t121 121t166.5 44.5q112 0 201 -67l1 -2q3 -2 5 -4h1q6 -3 12 -3q11 0 18.5 7.5t7.5 17.5q0 15 -13 23h-1
q-103 79 -232 79q-104 0 -192 -51.5t-139 -139.5t-51 -191.5t51 -192t139 -139.5t192 -51t192 51t139 139.5t51 191.5q0 91 -40 172z" />
    <glyph glyph-name="yinxingqia3" unicode="&#xe657;" 
d="M806 106h-588q-32 0 -54.5 24t-22.5 58v392q0 34 22.5 58t54.5 24h588q32 0 54.5 -24t22.5 -58v-392q0 -34 -22.5 -58t-54.5 -24v0zM852 557q0 30 -20 51t-48 21h-544q-28 0 -48 -21t-20 -51v-26h680v26zM172 433v-222q0 -30 20 -51t48 -21h544q28 0 48 21t20 51v222
h-680zM620 188l46 98h155l-46 -98h-155z" />
    <glyph glyph-name="youjian" unicode="&#xe626;" 
d="M789 54h-549q-49 0 -84.5 35.5t-35.5 84.5v420q0 49 35.5 84.5t84.5 35.5h549q49 0 84.5 -35.5t35.5 -84.5v-420q0 -49 -35.5 -84.5t-84.5 -35.5v0zM240 680q-35 0 -60 -25.5t-25 -60.5v-420q0 -35 25 -60.5t60 -25.5h549q35 0 60 25.5t25 60.5v420q0 35 -25 60.5
t-60 25.5h-549v0zM506 368q-5 0 -10 3l-304 208q-6 4 -7 11t3 12.5t11 7t13 -2.5l294 -201l312 201q6 4 13 2.5t10.5 -7.5t2 -13t-7.5 -10l-321 -208q-4 -3 -9 -3z" />
    <glyph glyph-name="yiguoqi" unicode="&#xe646;" 
d="M513 623q56 0 105 -25t81 -69l29 -8q-33 56 -90.5 89t-124.5 33q-65 0 -122 -31l30 -8q44 19 92 19zM665 636l16 -13l5 20l18 10l-18 11l-5 19l-16 -13l-21 2l8 -19l-8 -18zM385 680l-17 11l-3 -20l-17 -13l18 -9l6 -19l15 15l21 1l-9 18l7 19zM540 708l-12 16l-10 -18
l-20 -7l15 -14v-21l19 10l20 -5l-3 20l12 16zM765 582l-17 12l-3 -20l-16 -12l19 -10l7 -19l14 14h21l-10 19l6 19zM991 430l-873 234q-16 4 -30.5 -4t-18.5 -24l-63 -233q-4 -16 4.5 -30.5t24.5 -18.5l873 -234q16 -5 30.5 3.5t18.5 24.5l63 233q4 16 -4 30.5t-25 18.5z
M998 376l-57 -213q-4 -12 -14.5 -18.5t-22.5 -3.5l-854 229q-12 4 -18.5 14.5t-3.5 22.5l58 214q3 12 14 18t23 3l854 -229q12 -3 18 -14t3 -23zM513 754q124 0 221 -75.5t129 -193.5l22 -5q-30 127 -134 210.5t-238 83.5q-80 0 -152 -32t-126 -88l22 -6q50 50 116.5 78
t139.5 28zM605 180q-44 -19 -92 -19q-56 0 -104.5 25t-81.5 68l-29 8q33 -55 90.5 -88t124.5 -33q65 0 122 31zM390 138l-16 13l-5 -19l-18 -11l18 -11l5 -19l16 13l21 -2l-8 19l8 19zM513 76l12 -16l10 19l20 7l-15 14v20l-18 -10l-20 6l3 -20l-12 -17zM259 203l17 -14
l3 20l17 11l-18 11l-5 20l-15 -14l-21 2l9 -19l-7 -19zM513 30q-124 0 -221 75.5t-128 192.5l-23 6q30 -128 134 -211t238 -83q81 0 153 32t125 88l-22 6q-50 -50 -116 -78t-140 -28zM658 104l17 -12l3 21l17 12l-18 9l-6 20l-15 -16h-20l9 -18l-7 -20zM344 413
q16 -12 30 -21q-1 -1 -6 -12q-7 -13 -13 -23q-12 -23 -51 -13l-92 24q-45 12 -33 57l24 90l30 -8l-5 -21l103 -27l11 45l-139 36l8 29l170 -45l-27 -102l-133 35l-10 -39q-6 -21 14 -26l79 -20q21 -5 26 8q1 2 3.5 8.5t5.5 11.5q1 3 3 7.5t2 5.5zM479 321q23 -7 90 -22
q6 -2 11.5 -3t10.5 -2.5t7 -1.5q-13 -17 -17 -24q-67 17 -117 32q-32 9 -41 30q-22 -11 -31 -19l-4 35q6 4 13 6q3 2 13 6l15 58l-20 5l8 28l48 -12l-22 -86q8 -22 36 -30zM437 505l27 8q6 -16 16 -45q-3 -2 -17 -6q-6 -1 -14 -4q-5 18 -9 36q-3 8 -3 11zM478 423l28 11
q5 -8 23 -49q-5 13 -6 14l7 -19l-8 -4q-1 0 -8 -2.5t-13 -5.5q-2 3 -7 17l-5.5 13t-10.5 25zM569 448l10 34l30 -8l-9 -34l30 -8l-6 -26l-30 8l-18 -70q-9 -35 -42 -28q-26 5 -42 10v4q2 9 1 28q1 -1 16 -6q13 -3 17 -5q16 -4 20 14l16 61l-82 22l6 26zM775 410l-7 -24
l-11 2l-23 -89l11 -3l-7 -26l-31 9q9 -14 17 -29q21 16 36 73l25 96l78 -21l-45 -172q-5 -19 -25 -16q-8 2 -28 6v12q2 10 1 17q8 -3 17 -6q9 -2 12 7l7 27l-28 7q-13 -39 -37 -60l-4 4q-5 7 -13 16l-18 -8q-10 22 -19 38l22 10l-46 12l14 -19q-17 -11 -39 -25q-4 6 -11 15
q-1 2 -3 4.5l-2 2.5q17 8 36 22l-29 8l6 25l17 -4l24 90l-15 3l7 25l14 -4l5 18l25 -6l-4 -18l31 -8l5 17l27 -7l-5 -17zM680 330l-4 -16l31 -8l4 15zM689 366l-4 -14l32 -8l4 14zM699 404l-4 -15l32 -8l4 14zM782 304l28 -6l6 27l-27 7q-5 -22 -7 -28zM824 350l7 29l-27 7
l-8 -30z" />
    <glyph glyph-name="tixian" unicode="&#xe676;" 
d="M893 472q-3 10 -10.5 16t-17.5 6q-4 0 -7 -1q-12 -3 -18 -13t-3 -22q10 -40 10 -82q0 -91 -45 -168t-122 -122t-168 -45t-168 45t-122 122t-45 168t45 168t122 122t168 45q74 0 141 -31q6 -3 12 -3q18 0 26 17q5 11 1 22t-15 16q-78 36 -165 36q-79 0 -150.5 -29.5
t-127 -85t-85.5 -127.5t-30 -150.5t30 -150t85.5 -127t127 -85.5t150.5 -30t150.5 30t127 85.5t85.5 127t30 150.5q0 49 -12 96zM709 623q-9 0 -15 -6t-6 -15v-6q0 -8 6 -14.5t15 -6.5h153q8 0 14.5 6.5t6.5 14.5v6q0 9 -6.5 15t-14.5 6h-153zM390 312q-9 0 -15 -6.5
t-6 -14.5v-7q0 -8 6 -14.5t15 -6.5h96v-65q0 -8 6.5 -14.5t14.5 -6.5h7q8 0 14.5 6.5t6.5 14.5v65h108q9 0 15 6.5t6 14.5v7q0 8 -6 14.5t-15 6.5h-108v35h108q9 0 15 6.5t6 14.5v6q0 9 -6 15t-15 6h-100l98 104q6 7 5.5 15.5t-6.5 14.5l-4 4q-6 6 -15 6t-15 -7l-90 -94
l-98 93q-6 5 -14 5q-9 0 -15 -6l-5 -5q-6 -6 -5.5 -15t6.5 -15l106 -100h-101q-9 0 -15 -6t-6 -15v-6q0 -8 6 -14.5t15 -6.5h96v-35h-96z" />
    <glyph glyph-name="diaozhengbianma" unicode="&#xe60f;" 
d="M812 505h-60v60h-60v-60h-60v-61h-60v-59h120v-421h60v421h120v59h-60v61zM152 25h299v-61h-299v61zM572 744h300v-60h-300v60zM332 744h-60v-420h-120v-59h59v-60h61v-60h60v60h60v60h59v59h-119v420z" />
    <glyph glyph-name="gerenziliao" unicode="&#xe645;" 
d="M510 832q-91 0 -173.5 -35.5t-142.5 -95.5t-95.5 -142.5t-35.5 -173.5t35.5 -174t95.5 -143t142.5 -95.5t173.5 -35.5t174 35.5t143 95.5t95.5 143t35.5 174t-35.5 173.5t-95.5 142.5t-143 95.5t-174 35.5zM786 86q-47 57 -116.5 89.5t-147.5 32.5q-83 0 -155 -36
t-120 -98q-67 57 -105 138t-38 173q0 110 54.5 203.5t148 148t204 54.5t204 -54.5t148 -148t54.5 -203.5q0 -87 -34.5 -164.5t-96.5 -134.5zM510 615q-73 0 -124.5 -51.5t-51.5 -124.5t51.5 -124.5t124.5 -51.5t125 51.5t52 124.5t-52 124.5t-125 51.5z" />
    <glyph glyph-name="icon" unicode="&#xe60e;" 
d="M932 668q-49 49 -109 0q50 55 1 104q-19 20 -39 22.5t-45 -8t-52.5 -24t-74.5 -25t-99 -11.5q-54 0 -101 11.5t-75 25t-53.5 24t-46.5 8.5t-43 -22q-51 -46 0 -106q-60 49 -110 1q-20 -20 -22 -37t9 -37.5t25 -44t25.5 -67.5t11.5 -96q0 -54 -11 -99.5t-24.5 -70.5
t-24 -47.5t-8 -42t21.5 -41.5q45 -49 103 -2q-44 -52 3 -99q19 -20 39 -22.5t45 8t52.5 24t74.5 25t99 11.5q54 0 101 -11.5t75 -25t53.5 -24t46.5 -8.5t43 22q48 43 5 99q57 -45 101 4q20 22 22 41t-8.5 41.5t-23.5 48t-24.5 71t-11.5 98.5t12 96.5t26 67t24.5 44t8.5 38
t-22 36.5zM546 301q-16 11 -39 11t-39 -12l-232 -180q-11 -5 -23 -16l4 6l211 232q12 16 11.5 39t-12.5 39l-195 208q-5 7 -14 18l1 -2l253 -189q16 -11 39 -11t39 12l232 180q10 5 22 15l-19 -23l-195 -208q-12 -16 -12 -38.5t11 -39.5l211 -231l-1 1z" />
    <glyph glyph-name="chaxun" unicode="&#xe610;" 
d="M902 91l-156 155q65 88 65 198q0 91 -45 168t-122 122t-168 45t-168.5 -45t-122.5 -122t-45 -168t45 -168.5t122.5 -122.5t168.5 -45q69 0 132 28v1h1.5h1.5q16 9 16 28q0 12 -9 21t-22 9h-1h-2t-4 -1v0q-4 -1 -7 -3q-27 -11 -51 -15q-27 -6 -54 -6q-113 0 -193.5 80.5
t-80.5 193.5q0 114 80 194q81 81 194.5 81t194 -80.5t80.5 -194.5q0 -86 -50 -156q-7 -11 -16 -21v-0.5v-0.5q-10 -9 -10 -22q0 -12 8 -21v0v-1h0.5h0.5l21 -22l152 -153q9 -9 22 -9t22 9t9 22t-9 22z" />
    <glyph glyph-name="font60" unicode="&#xe6d8;" 
d="M742 458q-12 0 -20 9l-215 268l-196 -265q-6 -9 -16 -10.5t-18.5 4.5t-10.5 16.5t5 19.5l215 292q7 10 20 10q13 -1 20 -10l236 -293q6 -8 5 -18.5t-9 -17.5q-7 -5 -16 -5zM276 249q0 -19 13 -32t31.5 -13t32 13t13.5 32t-13.5 32t-32 13t-31.5 -13t-13 -32zM478 249
q0 -19 13.5 -32t32 -13t31.5 13t13 32t-13 32t-31.5 13t-32 -13t-13.5 -32zM681 243.5q0 -18.5 13 -32t31.5 -13.5t32 13.5t13.5 32t-13.5 31.5t-32 13t-31.5 -13t-13 -31.5zM810 -38h-581q-36 0 -62 27.5t-26 65.5v351q0 36 25 66t63 30h581q35 0 62.5 -29t27.5 -67v-351
q0 -37 -27 -65t-63 -28zM229 452q-14 0 -26 -14.5t-12 -31.5v-351q0 -16 11.5 -29t26.5 -13h581q14 0 27 13t13 29v351q0 16 -13 31t-27 15h-581z" />
    <glyph glyph-name="gongshangyinhang" unicode="&#xe697;" 
d="M512.5 -71q-92.5 0 -177 36t-145.5 97t-97 145t-36 177t36 177t97 145t145.5 97t177 36t176.5 -36t145 -97t97 -145t36 -177t-36 -177t-97 -145t-145 -97t-176.5 -36zM512 780q-108 0 -199 -53t-144 -144t-53 -199t53 -199t144 -144t199 -53t199 53t144 144t53 199
t-53 199t-144 144t-199 53zM527 192h176v83h-176v198h176v69h-176v72h248v-205h-180v-60h180v-222h-248v65zM249 349h180v60h-180v205h248v-72h-176v-69h176v-198h-176v-83h176v-65h-248v222z" />
    <glyph glyph-name="guangdayinhang" unicode="&#xe698;" 
d="M0 608h229q44 0 52 -13h-43v-13h65q11 -8 11 -13l-76 -1v-12h84q1 -1 2.5 -2t4 -5t1.5 -9h-262v-14l266 1q1 -11 1 -14h-267v-14l268 1q2 -8 -2 -14l-266 -2v-13l262 1q0 -10 -7 -13l-255 -2v-12l247 1q-1 -13 -10 -15l-237 -1v-13l217 2q0 -2 -2 -5t-11.5 -7t-24.5 -3
l-41 1v-12l67 -1q27 0 31 -12l-98 -2v-12h115q11 -8 11 -13l-264 -2v-15l270 3q10 -8 10 -15l-280 -1v-13h284q1 0 1.5 -1t1 -4t-0.5 -6l-286 -3v-12h286q2 -7 0 -13l-286 -1v-14h284q2 -8 -5 -14h-279v-13l274 1q-1 -13 -7 -14h-97v-14l84 1q-6 -13 -11 -15l-73 -1v-14
l49 1q-1 -2 -4 -4.5t-21 -6t-47 -2.5l-215 1v446v0zM586 386l2 -222h62l-1 107q-2 23 2.5 37.5t8.5 17.5l5 3q22 12 35.5 8.5t19.5 -13.5l6 -10l1 -150h61l-1 166q-4 21 -13.5 36t-20.5 20t-21.5 7.5t-17.5 1.5l-6 -1q-12 2 -27 -6t-24 -17l-10 -9l1 24h-62v0zM810 476
l2 -312h61l-1 50l30 41l50 -91l72 2l-78 142l65 89h-71l-70 -91l-3 170h-57zM565 189l-3 147q0 22 -14 35.5t-33 17t-38 4t-32 -1.5l-13 -2q-19 -4 -32.5 -12.5t-18.5 -18.5t-8 -19.5t-2 -15.5v-6l61 1q1 16 15 21.5t27 3.5l14 -2q16 -14 14.5 -22.5t-11.5 -11.5l-10 -3
q-9 0 -29.5 -4.5t-37.5 -9.5l-16 -4q-17 -7 -26.5 -21t-9.5 -24l-1 -11q0 -18 6 -31t14.5 -19.5t17 -10.5t13.5 -5l6 -1q24 -5 45.5 0t30.5 14l10 8l4 -23l65 2zM504 242q-6 -21 -25 -30q-5 -2 -12 -5t-21.5 -1.5t-20.5 15.5q-4 19 14 26q49 18 66 23q1 -12 -1 -28z" />
    <glyph glyph-name="shanghaiyinhang" unicode="&#xe70d;" 
d="M527 458h36l79 -3h11l64 -5l21 -2l49 -6l38 -7l37 -6l11 -3l20 -4l10 -3l19 -4l19 -5l8 -3l17 -4l16 -6l15 -5l7 -3l-494 491l-490 -490l8 3l8 3l9 3l18 5l10 3l10 3l10 2l10 3l21 4l12 3l11 2l12 2l23 4l50 8l10 2l73 8l87 6l79 3h46v1zM533 -66l411 412h-5l-29 2l-19 1
h-71l-66 -3h-9l-36 -3l-20 -1l-27 -2l-26 -2l-8 -1l-8 -1l-8 -1l-8 -1l-15 -2l-14 -2l-13 -2l-6 -1l-12 -2l-12 -2l-10 -2l-10 -2l-10 -2l-4 -1l-8 -3l-7 -2l-3 -1l-3 -1l-3 -2l-8 -4l-9 -5l-6 -4l-4 -3l-4 -5l-3 -5l-2 -5v-3v-5v-2v-2v-1l2 -5l3 -7l1 -1l3 -3l10 -8l5 -4
l5 -3l4 -2l3 -3l3 -2l3 -1l2 -2l1 -1l1 -1l2 -2l5 -7l5 -9l2 -9v-13v-4l-1 -2l-1 -2l-1 -2l-1 -3l-4 -4l-2 -3l-2 -2l-5 -5l-3 -2l-7 -5l-4 -2l-4 -2l-8 -5l-5 -2l-10 -5l-5 -2l-12 -5l-6 -2l-12 -5l-7 -2l-14 -5l-7 -2l-8 -3l-8 -2l173 -174zM510 -106l490 492h-6l-34 2
l-23 2h-85l-79 -4h-10l-44 -4l-23 -1l-33 -3l-30 -2l-10 -1l-10 -1l-9 -1l-9 -1l-18 -3l-17 -2l-15 -2l-8 -2l-14 -2l-14 -2l-12 -3l-12 -2l-12 -3l-5 -1l-9 -3l-8 -3l-4 -1l-4 -2l-3 -1l-10 -5l-11 -6l-7 -5l-4 -3l-5 -6l-3 -6l-3 -6l-1 -4v-6l1 -2v-2v-2l2 -6l4 -8l1 -1
l4 -4l11 -10l6 -4l6 -4l5 -3l4 -3l4 -2l2 -2l3 -2l1 -1l2 -2l2 -2l6 -8l6 -11l3 -11v-16l-1 -4l-1 -2l-1 -3l-1 -3l-2 -2l-4 -6l-2 -3l-3 -2l-6 -6l-4 -3l-8 -5l-4 -3l-5 -3l-10 -5l-6 -3l-12 -6l-6 -3l-14 -5l-7 -3l-15 -5l-8 -3l-17 -6l-8 -3l-9 -2l-10 -3l206 -207z" />
    <glyph glyph-name="guangfayinxing" unicode="&#xe619;" horiz-adv-x="1187" 
d="M593 503q-43 90 -62 135q-47 111 -94 258v0q-144 -419 -437 -755v0q210 49 418 62q104 156 175 300zM593 207q-88 0 -175 -6q-124 -181 -262 -329v0q206 41 437.5 41t436.5 -41v0q-145 151 -262 331q-60 4 -175 4zM0 141l156 -269q145 151 262 331q-228 -18 -418 -62z
M747 896v0q-35 -120 -94 -258q-19 -45 -62 -135q79 -162 175 -300q208 -13 418 -62v0q-288 330 -437 755zM593 503q43 90 62 135q47 111 94 258h-312q35 -120 94 -258q19 -45 62 -135zM1030 -128l156 269q-210 49 -418 62q117 -180 262 -331z" />
    <glyph glyph-name="nanjingyinhang" unicode="&#xe61b;" 
d="M708 725q-23 54 -77.5 86.5t-120.5 32.5q-93 0 -158 -63t-65 -153q0 -25 3 -36t7 -13t11 5q92 79 204 79q37 0 72 -9q8 -2 11 -1.5t10 4.5q37 23 96 46q14 6 7 22zM226 660q-58 -6 -106 -48t-68 -105q-29 -87 11 -169t125 -109q24 -8 36 -8q11 -1 14 2t-1 12
q-47 112 -12 219q11 35 30 66q5 7 5.5 9.5t-1.5 10.5q-11 43 -14 106q-1 15 -19 14zM140 181q-14 -58 11.5 -116.5t79.5 -96.5q74 -55 164 -42t142 85q15 21 19 32q4 10 2 14t-12 3q-120 -11 -211 56q-30 21 -53 49q-6 7 -8 8t-11 2q-44 3 -105 19q-14 4 -18 -13zM568 -50
q52 -30 115 -24t116 45q75 54 90.5 143.5t-37.5 161.5q-15 21 -24 28t-13 6.5t-6 -10.5q-27 -118 -119 -184q-29 -22 -63 -35q-8 -4 -10 -5.5t-5 -9.5q-17 -41 -50 -94q-9 -13 6 -22zM920 287q44 38 58 101t-7 125q-28 87 -108 129.5t-165 15.5q-24 -8 -34 -15
q-10 -6 -10.5 -10t8.5 -9q103 -63 138 -170q11 -34 14 -71q1 -9 2 -11t7 -8q34 -28 74 -77q10 -12 23 0zM508 112q-54 0 -102 23q-6 2 -6 8v183q0 11 6.5 13.5t14.5 -5.5l25.5 -25.5l30.5 -30.5l26 -26q4 -4 5 -4t5 4q33 33 102 99.5t103 100.5q4 4 10.5 3.5t8.5 -5.5
q19 -52 19 -96q0 -99 -73.5 -170.5t-174.5 -71.5zM512 603q54 0 102 -22q6 -3 6 -8v-183q0 -11 -6.5 -13.5t-14.5 4.5q-41 42 -82 83q-3 3 -4.5 3t-4.5 -3q-1 -1 -206 -201q-4 -4 -10.5 -3.5t-8.5 6.5q-19 51 -19 95q0 100 73.5 171t174.5 71z" />
    <glyph glyph-name="xingyeyinhang" unicode="&#xe61c;" 
d="M1024 387q0 65 -53.5 119.5t-145 86.5t-198.5 32q-131 0 -234 -45.5t-143 -117.5v0q-8 -13 -8 -28q0 -36 38 -58l202 -116q16 -9 35.5 -9t36.5 9l191 110q21 12 21 32q0 19 -20 31l-71 41l-157 -90l-119 68q35 32 96 51t134 19q110 0 187.5 -41t77.5 -99
q-1 -58 -54 -106.5t-142 -75t-193.5 -23.5t-192 34t-138 82t-48.5 110v0q1 77 62.5 142t167 102t230.5 35q33 0 66 -3q-83 30 -187 30q-83 0 -154 -20q-139 -38 -225 -119.5t-86 -182.5q0 -89 68.5 -164.5t186.5 -119.5t257 -44t257 44t186.5 119.5t68.5 164.5v0z" />
    <glyph glyph-name="bohaiyinhang" unicode="&#xe61d;" 
d="M183 519q3 4 8 10t22.5 22.5t37 29.5t50.5 25.5t63 16t74.5 -5t85.5 -30.5q5 3 13 8t34 17.5t53 22t67 17t78 6.5q127 -5 160 -53q15 -19 11.5 -43t-26.5 -42q-6 4 -18 11.5t-56.5 21.5t-98 19t-144 -5.5t-191.5 -41.5q-6 3 -16.5 7.5t-42 11.5t-61.5 5
q-28 -2 -53.5 -9.5t-37.5 -14.5zM811 212l113 199q0 1 -2 4t-8.5 12.5t-15.5 18t-25 19.5t-35 20t-47 17t-60.5 12.5t-76.5 4.5t-93 -6q-76 -9 -149.5 -33t-120 -48t-88.5 -53t-54.5 -40.5t-18.5 -17.5v0q7 4 20.5 10.5t57.5 21.5t89 23.5t112 8t131 -15.5q54 -13 101.5 -34
t77 -41.5t51.5 -39.5t32 -30zM875 82l144 303q-1 3 -3 7.5t-10.5 18.5t-19.5 27t-31.5 30t-44.5 30.5t-60 26t-77.5 19t-97.5 6.5t-118 -8q-97 -14 -190.5 -50.5t-152.5 -73.5t-112.5 -81.5t-69.5 -61.5t-24 -27v0q10 7 27 17t72.5 32.5t113 35.5t142.5 12.5t167 -23.5
q68 -20 128.5 -52t98.5 -63t66 -60.5t40 -46.5t12 -18z" />
    <glyph glyph-name="nongyeyinhang" unicode="&#xe694;" 
d="M476 580h56h6h8.5t7 1t7 2.5t4.5 4.5q4 7 4 13v29v38v155q0 73 -2 73h-108q-2 0 -2 -37v-153q0 -12 -1 -34t-1 -40t2 -34t19 -18zM636 885v-160q0 -16 1.5 -48t1 -57.5t-3.5 -47.5q-2 -13 -23 -16t-41.5 0t-33.5 -1q-8 -2 -11.5 -11t-3.5 -17.5t1 -22t1 -16.5v-103
q3 7 10 10t12.5 3.5t16 0t12.5 -0.5q10 0 28.5 -1t33.5 -1t27 2q17 5 17 23q-2 2 -2 10.5t1 19.5t1 12v64v229q105 -50 168.5 -152t63.5 -220q0 -98 -45.5 -186t-125 -146t-175.5 -71v122v61v29v4v6v4q1 3 1 6q1 0 1 1q2 0 4 1q3 1 35 -1t55.5 2.5t17.5 20.5q-3 5 -3 14.5
t1.5 21.5t1.5 15v107q0 -8 -3 -13t-10 -7t-11.5 -2.5t-14.5 0t-11 0.5q-10 0 -27.5 1t-32 1t-26.5 -2q-8 0 -13 -3.5t-6.5 -11t-2 -13t0 -15.5t0.5 -12v-103q-16 0 -18 1q-4 2 -4.5 2.5t-0.5 8.5v27v53q0 5 0.5 15.5t0.5 19t-2 14.5q-1 7 -5.5 11.5t-12.5 5.5t-14 1.5
t-15.5 -0.5t-11.5 -1q-9 0 -26.5 -1t-31.5 -1t-26 2q-14 5 -12 21v-121q0 -4 -1 -13t-1 -15.5t2 -12.5q1 -7 5 -11t10.5 -5.5t11.5 -1.5t13.5 0.5t11.5 0.5h52q3 0 5 -1t2.5 -3.5t0.5 -4.5t-0.5 -5.5t-0.5 -5.5v-214q-96 13 -175.5 71t-124.5 146t-45 186q0 118 64 220
t169 152v-261q0 -12 -0.5 -37t-0.5 -38q3 -19 22 -22h66q4 0 17 1t21.5 1t18 -3.5t13.5 -11.5v117v13v13t-1.5 10t-4 9.5t-7.5 5.5t-12.5 3.5t-16.5 0.5h-20h-16q-13 0 -20 2t-10 10t-3.5 14t-0.5 22v280q-115 -29 -205 -109t-137 -192t-39 -233q8 -107 58.5 -202.5
t128 -159.5t179 -95.5t207.5 -16.5q126 17 229 95.5t158 196t48 247.5q-9 166 -115.5 297.5t-264.5 171.5z" />
    <glyph glyph-name="chedai" unicode="&#xe6b5;" horiz-adv-x="1306" 
d="M329.5 314q-25.5 0 -43.5 18t-18 44t18 44.5t43.5 18.5t43 -18.5t17.5 -44.5t-17.5 -44t-43 -18zM886 541q-113 0 -193 -80t-80 -192.5t80 -192t193 -79.5t193.5 79.5t80.5 192t-80.5 192.5t-193.5 80zM886.5 61q-86.5 0 -148 61t-61.5 147t61.5 147t148 61t147.5 -61
t61 -147t-61 -147t-147.5 -61zM983 209q7 0 12.5 -4.5t5.5 -11.5q0 -6 -5.5 -10.5t-12.5 -4.5h-86v-53q0 -6 -5.5 -10t-13.5 -4q-7 0 -12 4.5t-5 9.5v53h-87q-7 0 -12 5t-5 11t5 10.5t12 4.5h87v45h-87q-7 0 -12 4.5t-5 11.5q0 6 5 10t12 4h74l-76 121q-4 5 -1.5 10.5
t9.5 9.5q15 5 24 -6l75 -122l76 122q3 5 10 7t14 -1q6 -3 8.5 -9t-1.5 -11v1l-75 -122h72q7 0 12.5 -4.5t5.5 -10.5t-5.5 -10.5t-12.5 -4.5h-86v-45h86zM341 201h205v69h-319v144q0 14 10.5 29.5t15.5 16.5q4 2 324 2h61q3 4 8 12t24 26t42 30h-407q51 145 58 161
q10 20 43 20q3 0 59.5 0.5t114 1t111.5 0t62 -1.5q25 -2 52 -29q2 -3 11 -25t16 -40.5t7 -21.5h70q-1 4 -10 29t-20 55t-14 35q-44 66 -112 66h-347q-40 0 -73 -23q-9 -6 -14.5 -12t-9.5 -13t-5 -8l-75 -195q-70 -9 -70 -100v-228h73v-86v0q0 -22 15.5 -38t38.5 -16t39 16
t16 38v0v86z" />
    <glyph glyph-name="shangyexian" unicode="&#xe612;" 
d="M498 -57l-37 22l-6 4q-167 94 -217 147q-38 42 -61 91q-13 30 -17 53l-20 -5l20 3l-1 9l-20 -2h20l-2 457l-14 -19l354 122h-13l353 -122l-13 19l-2 -460h20l-20 3q-5 -28 -17 -56q-22 -51 -62 -93q-35 -38 -127 -94q-53 -34 -109 -62l-28 -16zM478 -91l10 -6l10 6l28 16
q58 31 110 63q97 59 136 101q74 79 89 171v3l2 460v14l-13 5l-353 121l-7 2l-6 -2l-353 -121l-14 -5v-14l2 -458v-2l1 -9l1 -2q5 -29 20 -60q25 -56 68 -102q30 -33 82.5 -68t143.5 -87l6 -4zM490 -27l-33 20l-5 3q-152 88 -195 136q-37 41 -57 87q-12 27 -16 50l-1 7
l-2 415l-3 -4l314 110h-4l314 -110l-3 4l-2 -418q-13 -76 -74 -141q-33 -37 -115 -88q-49 -31 -98 -57l-25 -15zM486 -35l2 -1l2 1l25 14q54 29 97 57q85 53 118 89q63 69 76 148l2 418v3l-3 1l-313 110l-2 1l-2 -1l-312 -110l-3 -1v-3l1 -415l1 -9q5 -25 17 -52
q20 -48 58 -89q45 -49 197 -138l6 -3zM506 629v-35h187v-32h-406v32h187v35h32zM631 541l-15 -46h15q24 0 41.5 -17.5t17.5 -41.5v-178q0 -24 -17.5 -41.5t-41.5 -17.5h-21v31h21q11 0 19 8t8 20v177q0 11 -8 19t-19 8h-53l67 -67l-23 -22l-88 89h-96q-23 -49 -87 -86
l-15 27q45 27 66 59h-51q-11 0 -19 -8t-8 -19v-236h-33v236q0 24 17.5 42t42.5 18h14l-14 46l30 8l16 -54h186l18 55zM408 233q-21 0 -36 15t-15 36v45q0 20 15 35t36 15h165q21 0 36 -15t15 -35v-45q0 -21 -15 -36t-36 -15h-165zM573 265q8 0 13 5.5t5 13.5v45q0 7 -5 12.5
t-13 5.5h-165q-8 0 -13.5 -5.5t-5.5 -12.5v-45q0 -8 5.5 -13.5t13.5 -5.5h165z" />
    <glyph glyph-name="jiaoqiangxian" unicode="&#xe613;" 
d="M498 -57l-37 22l-6 4q-167 94 -217 147q-38 42 -61 91q-13 30 -17 53l-20 -5l20 3l-1 9l-20 -2h20l-2 457l-14 -19l354 122h-13l353 -122l-13 19l-2 -460h20l-20 3q-5 -28 -17 -56q-22 -51 -62 -93q-35 -38 -127 -94q-53 -34 -109 -62l-28 -16zM478 -91l10 -6l10 6l28 16
q58 31 110 63q97 59 136 101q74 79 89 171v3l2 460v14l-13 5l-353 121l-7 2l-6 -2l-353 -121l-14 -5v-14l2 -458v-2l1 -9l1 -2q5 -29 20 -60q25 -56 68 -102q30 -33 82.5 -68t143.5 -87l6 -4zM490 -27l-33 20l-5 3q-152 88 -195 136q-37 41 -57 87q-12 27 -16 50l-1 7
l-2 415l-3 -4l314 110h-4l314 -110l-3 4l-2 -418q-13 -76 -74 -141q-33 -37 -115 -88q-49 -31 -98 -57l-25 -15zM486 -35l2 -1l2 1l25 14q54 29 97 57q85 53 118 89q63 69 76 148l2 418v3l-3 1l-313 110l-2 1l-2 -1l-312 -110l-3 -1v-3l1 -415l1 -9q5 -25 17 -52
q20 -48 58 -89q45 -49 197 -138l6 -3zM285 619h102q21 0 36 -15t15 -36v-56q0 -21 -15 -36t-36 -15h-61q-8 0 -13 -5t-5 -13v-54q0 -8 5 -13.5t13 -5.5h56q21 0 36 -15t15 -36v-68q0 -20 -15 -35t-36 -15h-93v32h94q8 0 13 5.5t5 13.5v68q0 8 -5 13.5t-13 5.5h-56
q-21 0 -36 15t-15 36v52q0 21 15 36t36 15h60q8 0 13.5 5.5t5.5 12.5v57q0 8 -5.5 13.5t-13.5 5.5h-102v32zM456 402q0 21 15 36t36 15h57v33h-44q-21 0 -35.5 15t-14.5 36v39q0 21 14.5 36t35.5 15h121q21 0 35.5 -15t14.5 -36v-39q0 -21 -14.5 -36t-35.5 -15h-45v-32h58
q21 0 35.5 -15t14.5 -36v-51q0 -21 -14.5 -35.5t-35.5 -14.5h-58v-68h57q7 0 12.5 5.5t5.5 13.5v25h32v-25q0 -21 -14.5 -36t-35.5 -15h-193v32h105v68h-58q-20 0 -35 15t-15 36v49h-1zM488 352q0 -8 6 -13.5t13 -5.5h58v88h-58q-7 0 -13 -5.5t-6 -13.5v-50zM502 537
q0 -8 5.5 -13.5t12.5 -5.5h122q7 0 12.5 5.5t5.5 13.5v39q0 8 -5.5 13.5t-12.5 5.5h-122q-7 0 -12.5 -5.5t-5.5 -13.5v-39zM596 421v-88h58q8 0 13 5.5t5 13.5v50q0 8 -5.5 13.5t-12.5 5.5h-58z" />
    <glyph glyph-name="shouye-shouye" unicode="&#xe601;" 
d="M949 377l-440 411l-441 -410q-6 -6 -6.5 -15t5.5 -15.5t15 -6.5t15 6l412 383l411 -384q6 -6 14 -6v0q10 0 16 7q6 6 6 15t-7 15zM815 368q-9 0 -15.5 -6t-6.5 -15v-327h-170v227h-228v-227h-171v327q0 9 -6 15t-15 6t-15.5 -6t-6.5 -15v-370h257v228h142v-228h256v370
q0 9 -6 15t-15 6zM665 674h128v-114q0 -9 6.5 -15t15.5 -6t15 6t6 15v157h-171q-9 0 -15 -6.5t-6 -15.5t6 -15t15 -6zM665 674z" />
    <glyph glyph-name="check1" unicode="&#xe683;" 
d="M692 755h-318q-87 0 -149.5 -62.5t-62.5 -149.5v-318q0 -87 62.5 -149.5t149.5 -62.5h318q88 0 150 62.5t62 149.5v318q0 87 -62 149.5t-150 62.5zM788 511l-308 -297q-10 -10 -21 -10t-21 10l-159 165q-8 8 -8 18.5t8 18.5q17 17 42 0l149 -143l286 281q17 16 42 0
q5 -8 2.5 -22t-12.5 -21z" />
    <glyph glyph-name="gaoedu" unicode="&#xe603;" 
d="M432 530l77 -141l77 141h44l-89 -155h64v-21h-76v-42h76v-21h-76v-68h-40v68h-76v21h76v42h-76v21h64l-89 155h44zM759 292l103 -117l19 119zM859 387q-13 2 -13 14q-12 127 -108.5 214.5t-227.5 87.5q-91 0 -169 -45t-123 -122t-45 -167q0 -123 78 -213q3 -3 3 -9
q0 -10 -10 -13.5t-17 4.5q-84 99 -84 231q0 99 49 183t134 133t184 49q143 0 248 -95.5t119 -234.5q0 -8 -6 -13t-12 -4zM500 0l-93 108l-101 -78l-18 23l123 97l93 -110l317 225l18 -24z" />
    <glyph glyph-name="SVG-" unicode="&#xe627;" 
d="M744 708q38 0 65 -27t27 -65v-464q0 -38 -27 -65t-65 -27h-464q-38 0 -65 27t-27 65v464q0 38 27 65t65 27h464zM744 755h-464q-57 0 -98 -41t-41 -98v-464q0 -57 41 -98t98 -41h464q57 0 98 41t41 98v464q0 57 -41 98t-98 41zM406 216h-2q-10 1 -16 9l-126 163
q-6 8 -4.5 17.5t9 15.5t17 4.5t15.5 -8.5l111 -145l319 263q7 6 17 5t16 -8.5t5 -17t-8 -15.5l-338 -278q-7 -5 -15 -5z" />
    <glyph glyph-name="mintaiyinxing" unicode="&#xe61e;" 
d="M541 796q51 6 104.5 -9.5t99.5 -47t81 -77.5t47.5 -103.5t0.5 -123.5q-11 -49 -23.5 -81t-35.5 -53q11 68 -1.5 134.5t-45 119t-82.5 89.5t-114 46t-138 -11q-24 -7 -47.5 -19.5t-35.5 -21.5t-37 -29.5t-33 -27.5q9 52 36.5 92t66 64t77 38t80.5 21zM166 627
q-2 -14 -7.5 -44.5t-8.5 -46.5q-15 -94 33 -206q27 -64 80 -120t126 -94.5t158.5 -45t179.5 28.5q40 16 70.5 38t70.5 61t54 51q-26 -90 -86.5 -154t-135.5 -93t-161 -29.5t-163.5 28.5t-144 89.5t-100.5 145.5q-14 33 -22.5 70.5t-11 83.5t7.5 87q6 27 17.5 57t18.5 44
t25 49zM512 523q52 -25 133 -134q-96 -99 -133 -137q-14 13 -36 33q-15 17 -46.5 51.5t-47.5 52.5l1 1v1l1 1l1 1l1 1l1 1l1 1l1 1l1 1l1 1l1 1l1 1l1 1l1 1l1 1l1 1l1 1l1 1l1 1l1 1l1 1l1 1l1 1l1 1l1 1l1 1l1 1l1 1l1 1l1 1l1 1l1 1l1 1l1 1l1 1l1 1l1 1l1 1l1 1l1 1l1 1
l1 1v1l1 1l1 1l1 1l1 1l1 1l1 1l1 1l1 1l1 1l1 1l1 1l1 1l1 1l1 1l1 1l1 1l1 1l1 1l1 1l1 1l1 1l1 1l2 2l1 1l1 1v1l1 1l1 1l1 1l1 1l1 1l1 1l1 1l1 1l1 1l1 1l1 1l1 1l1 1l1 1l1 1l1 1l1 1l1 1l1 1l1 1l1 1l1 1l1 1l1 1l1 1l1 1l1 1l1 1l1 1l1 1l1 1l1 1l1 1l1 1l1 1l1 1
l1 1l1 1l1 1l1 1v1l1 1l1 1l1 1l1 1l1 1l1 1l1 1l1 1l1 1l1 1l1 1l1 1l1 1l1 1l1 1l1 1l1 1l1 1l1 1l1 1l1 1z" />
    <glyph glyph-name="jinrongjielogo-" unicode="&#xe72f;" 
d="M1014 523l-3 12l-4 11l-4 12l-4 11l-5 12l-5 11l-5 11l-5 11l-6 11l-6 11l-6 10l-7 11l-7 10l-7 11l-8 10l-8 10l-7 9l-9 10l-8 10l-9 9l-19 19l-10 9l-9 8l-10 9l-10 8l-10 8l-10 7l-11 7l-10 7l-11 7l-21 12l-11 6l-11 5l-11 5l-12 5l-11 5l-12 4l-23 8l-12 3l-12 3
l-12 3l-12 3l-12 2l-13 2l-25 3l-12 1l-26 1h-26l-27 -1l-12 -1l-25 -3l-25 -4l-13 -3l-12 -3l-12 -3l-11 -3l-24 -8l-11 -4l-11 -5l-12 -5l-11 -5l-11 -5l-11 -6l-10 -6l-11 -6l-11 -7l-10 -7l-10 -7l-10 -7l-10 -8l-10 -8l-10 -9l-10 -8l-9 -9l-10 -9l-9 -10l-9 -9l-9 -10
l-8 -10l-8 -9l-8 -10l-7 -10l-7 -11l-8 -10l-6 -11l-6 -10l-6 -11l-6 -11l-6 -11l-5 -11l-5 -11l-4 -12l-4 -11l-4 -12l-4 -11l-3 -12l-4 -12l-2 -12l-3 -12l-2 -12l-2 -13l-2 -13l-1 -12l-1 -13l-1 -13v-13v-13v-13v-13l1 -13l1 -13l1 -13l4 -24l2 -13l3 -12l2 -12l4 -12
l3 -12l4 -12l4 -12l4 -11l4 -11l5 -12l5 -11l6 -11l6 -11l6 -11l6 -10l6 -11l8 -11l7 -10l15 -20l8 -10l8 -10l9 -10l9 -9l9 -10l10 -9l9 -9l10 -9l20 -16l10 -8l10 -7l10 -7l10 -7l11 -7l11 -6l10 -6l11 -6l11 -5l11 -5l12 -5l11 -5l11 -4l12 -4l12 -4l11 -3l12 -3l12 -3
l13 -3l12 -2l13 -2l12 -2l25 -2l27 -1h13h18l18 1l18 2l18 1l17 3l17 3l18 4l16 4l16 5l17 5l16 6l15 6l16 8l15 7l15 8l15 9l10 6l9 6l10 6l8 7l9 6l8 7l8 6l7 7l7 7l7 6l6 7l6 7l6 7l5 7l5 7l5 7l4 8l4 7l3 7l3 8l3 7l2 7l2 8l2 8l1 7l1 8v8l1 8l-1 8v8l-1 8l-1 8l-2 7
l-1 6l-2 7l-2 6l-3 6l-2 6l-3 6l-3 6l-7 12l-4 5l-4 5l-9 10l-10 10l-5 5l-6 5l-6 4l-6 4l-6 4l-6 4l-7 4l-7 4l-8 4l-7 3l-8 3l-8 4l-8 3l-9 3l-9 3l-9 3l-23 8l7 4l8 5l7 4l6 5l6 6l5 5l5 6l5 6l4 5l8 13l3 7l3 7l2 7l1 7l2 7v9l1 8l-1 9v8l-2 8l-2 8l-3 8l-3 8l-3 8l-5 8
l-5 8l-5 7l-7 8l-7 7l-7 7l-8 7l-8 8l-9 7l-9 7l-10 6l-9 6l-10 6l-11 5l-10 5l-11 4l-11 4l-12 4l-12 4l-12 3l-13 3l-12 2l-14 2l-15 3l-15 2l-31 2l-32 2l-16 1l-17 1h-17h-17h-18l-17 -1l-37 -2l-19 -1l-18 -2v-161l30 4l15 1l15 1l30 2h16h31l31 -1l31 -3l31 -3l16 -2
l13 -2l12 -3l12 -3l10 -2l10 -4l9 -3l8 -4l11 -6l3 -2l3 -3l3 -2l3 -2l5 -5l2 -3l3 -6l2 -2l1 -3l1 -3l2 -6v-4v-6v-2l-1 -3l-2 -7l-4 -8l-2 -3l-3 -3l-2 -3l-4 -2l-3 -3l-4 -1l-4 -2l-4 -1l-5 -1l-5 -1h-6h-12h-6l-6 1l-8 1l-18 2l-19 2l-18 1l-18 2l-18 1h-18l-18 1h-17
h-17l-18 -1h-17l-17 -1l-16 -2l-17 -1l-16 -2l-16 -2v-165l23 3l22 2l22 2l21 2h21l21 1l21 1h20l39 -2l18 -1l37 -4l18 -2l17 -3l30 -5l13 -4l12 -3l11 -3l10 -4l9 -4l5 -2l4 -3l4 -2l4 -2l3 -3l3 -2l4 -3l2 -3l3 -2l3 -3l2 -3l2 -3l2 -3l2 -3l1 -3l1 -4l1 -3l2 -11v-3
l1 -3l-1 -3v-3l-1 -6l-1 -3l-1 -3l-1 -3l-2 -3l-1 -3l-2 -3l-4 -6l-5 -6l-3 -4l-4 -3l-4 -4l-4 -3l-4 -3l-4 -3l-5 -3l-4 -3l-5 -3l-5 -2l-5 -3l-6 -2l-5 -2l-6 -2l-6 -2l-7 -2l-6 -2l-6 -2l-7 -1l-7 -1l-15 -3l-14 -2l-16 -2l-17 -1l-18 -1h-28l-10 1l-19 1l-9 1l-10 1
l-9 1l-9 2l-9 2l-9 2l-9 2l-9 3l-9 2l-8 3l-9 3l-8 4l-9 3l-16 8l-8 4l-8 5l-8 4l-8 5l-8 5l-7 5l-15 11l-7 6l-8 7l-7 6l-14 13l-7 7l-6 8l-7 7l-6 7l-6 7l-5 7l-6 8l-5 8l-5 7l-5 8l-5 8l-5 8l-3 8l-5 8l-3 8l-4 9l-4 8l-3 8l-2 9l-3 9l-5 17l-2 9l-2 9l-1 9l-2 10l-1 9
l-1 10l-1 9v9l-1 10v20l1 9v10l1 9l2 19l2 9l1 9l2 9l2 9l2 9l3 9l3 8l2 9l3 9l4 8l4 9l3 8l5 8l3 8l5 8l5 8l5 8l5 7l5 8l6 8l5 7l6 7l6 7l7 7l6 8l7 7l7 6l7 7l7 6l8 7l7 6l8 5l7 6l8 5l8 5l7 5l8 5l8 4l8 5l9 4l8 3l8 4l8 3l9 3l9 4l8 2l9 3l9 2l9 2l9 2l9 1l9 2l10 1
l9 1l19 1l20 1l19 -1h10l9 -1l10 -1l9 -1l9 -2l9 -1l9 -2l9 -2l9 -2l9 -3l9 -2l8 -4l9 -3l16 -7l8 -3l9 -4l8 -5l7 -4l8 -5l16 -10l7 -5l8 -6l7 -5l7 -6l8 -7l7 -6l7 -7l7 -6l6 -7l7 -7l6 -7l7 -7l6 -8l5 -7l6 -8l5 -7l5 -8l5 -8l4 -8l5 -8l4 -8l4 -8l4 -8l4 -9l3 -8l3 -8
l3 -9l3 -9l2 -9l3 -9l2 -8l2 -10l1 -8l2 -10l1 -9l1 -10l1 -9v-10l1 -9v-10l-2 -41l8 -5l8 -5l8 -5l8 -6l7 -5l15 -12l8 -6l7 -6l7 -6l7 -7l6 -6l7 -8l6 -6l7 -8l6 -8l4 18z" />
    <glyph glyph-name="huankuan" unicode="&#xe693;" 
d="M524 9q-96 0 -181 49q-84 48 -134 133l44 26q43 -73 116.5 -115.5t157.5 -42.5v0q83 0 156 42q56 34 95 86.5t55 111.5t8.5 124t-39.5 122q-43 75 -118 119.5t-162 44.5q-84 0 -156 -43q-92 -54 -135 -162l-3 -7l47 -11l-94 -84l-48 119l46 -9l2 5q22 59 62 107
q41 50 97 83q86 50 184 50q97 0 181 -48q87 -50 137 -139q76 -134 37 -283q-19 -73 -63.5 -131.5t-107.5 -95.5q-86 -51 -184 -51v0v0zM527 171q-15 0 -20 5t-5 20v68h-99q-17 0 -20 3q-5 4 -5 22q0 16 4 20q4 5 21 5h99v74h-99q-14 0 -19.5 5t-5.5 20t5.5 20t19.5 5h40
l-30 73v1q-7 11 -7 21q0 13 11 21v0h1q7 6 21 6q15 0 24 -17l64 -112l58 109q11 19 25 19q8 0 17 -6v0q13 -8 13 -20q0 -10 -7 -22l-40 -73h54q16 0 22.5 -6t6.5 -19q0 -15 -5.5 -20t-19.5 -5h-99v-74l95 -1q18 0 23 -3q6 -4 6 -21q0 -19 -5 -22q-3 -3 -20 -3h-99v-68
q0 -17 -4 -21t-21 -4z" />
    <glyph glyph-name="xianjin" unicode="&#xe732;" 
d="M930 490q-77 77 -183 92v108v0v2q0 53 -104 84q-94 29 -226 29t-226 -29q-104 -31 -104 -84q0 -3 1 -7v0v-78q-18 -7 -32 -15q-56 -32 -56 -71q0 -3 1 -7h-1v-120v0q0 -26 23 -47q21 -21 64 -37v-101h-1q0 -26 25 -49q38 -35 125 -56.5t177 -21.5q11 0 22 1
q18 -26 40 -48q94 -94 227.5 -94t227.5 94.5t94 227.5t-94 227zM123 585v53q26 -17 68 -30q94 -28 226 -28t226 28q43 14 69 31v-55q-5 1 -10 1q-133 0 -227 -95q-9 -8 -16 -17q-103 -4 -198.5 18t-127.5 52q-9 9 -9 15h-1v24l1 1zM202 743q89 27 215.5 27t215.5 -27
q40 -13 59.5 -26.5t19.5 -24t-19.5 -24t-59.5 -26.5q-89 -27 -215.5 -27t-215.5 27q-40 13 -59.5 26.5t-19.5 24t19.5 24t59.5 26.5zM88 568v-10h1q0 -21 20 -41q36 -34 127 -57t191 -23q-129 -15 -240 8q-96 19 -137 56q-15 12 -15 20q0 22 53 47zM47 372q-10 10 -11 18v0
v76q50 -37 143 -56q70 -14 148 -14q41 0 84 4q-21 -43 -27 -91q-105 -5 -202 13q-101 18 -135 50zM381 241q-63 -2 -122 12.5t-98 36.5q84 -17 181 -17q19 0 39 1q-1 -6 -1 -11q0 -11 1 -22zM135 186q-12 12 -13 22v0v65q42 -31 114 -50q66 -18 134 -18q7 0 15 1
q9 -46 30 -88q-85 -1 -167 19t-113 49zM702.5 -24q-118.5 0 -202.5 84t-84 202.5t84 202.5t202.5 84t202.5 -84t84 -202.5t-84 -202.5t-202.5 -84zM796 443l-57 -105q-23 -43 -28 -57h-1q-15 35 -85 162h-53l99 -171h-81v-38h95v-52h-95v-39h95v-75h48v75h92v39h-92v52h92
v38h-79l101 171h-51z" />
    <glyph glyph-name="pufayinhang" unicode="&#xe623;" 
d="M728 655q44 -17 76.5 -51.5t47.5 -79.5q-20 4 -45 4q-42 0 -79 -15v142zM728 112q38 -15 80 -15q89 0 152.5 63t63.5 153v359l-160 159v-360v0v-15v-1q0 -67 -37.5 -121.5t-98.5 -79.5v-142zM591 313v0q0 -90 -63 -153t-152 -63q-42 0 -80 15v143q60 24 98 78.5t38 121.5
v1q0 89 63.5 152t152.5 63q42 0 80 -16v-142q-61 -24 -99 -78.5t-38 -121.5v0zM728 254q-39 -15 -80 -15q-22 0 -45 5q15 -45 48 -79.5t77 -52.5v142v0zM296 513q38 15 80 15q24 0 45 -4q-15 45 -48 79.5t-77 52.5v-143v0zM296 112q-44 17 -77 52t-48 80q22 -5 45 -5
q41 0 80 16v-143zM296 656q-39 15 -80 15q-89 0 -152.5 -63t-63.5 -153v-359l160 -159v360v0v15v1q0 67 37.5 121.5t98.5 78.5v143z" />
    <glyph glyph-name="mingxi" unicode="&#xe604;" 
d="M774 660h-40q-12 0 -20.5 -8t-8.5 -19.5t8.5 -19.5t20.5 -8h32v-559h-512v559h32q12 0 20.5 8t8.5 19.5t-8.5 19.5t-20.5 8h-41q-20 0 -34.5 -13.5t-14.5 -33.5v-575q0 -20 14.5 -33.5t34.5 -13.5h529q21 0 35.5 13.5t14.5 33.5v575q0 19 -14.5 33t-35.5 14v0zM368 567
h284q23 0 36 16t8 36l-11 40q-4 16 -19.5 27.5t-33.5 11.5h-38l-10 38q-5 16 -20 27.5t-34 11.5h-40q-19 0 -34 -11.5t-20 -27.5l-10 -38h-38q-18 0 -33.5 -11.5t-19.5 -27.5l-11 -40q-5 -20 8 -36t36 -16v0zM390 644h39q18 0 33.5 11t19.5 28l10 37l36 1l10 -38
q4 -17 19.5 -28t33.5 -11h39l6 -23l-252 1zM652 506h-284q-12 0 -20.5 -8t-8.5 -19t8.5 -19t20.5 -8h284q12 0 20.5 8t8.5 19t-8.5 19t-20.5 8v0zM652 429h-284q-12 0 -20.5 -8t-8.5 -19t8.5 -19t20.5 -8h284q12 0 20.5 8t8.5 19t-8.5 19t-20.5 8v0zM652 353h-284
q-12 0 -20.5 -8t-8.5 -19.5t8.5 -19.5t20.5 -8h284q12 0 20.5 8t8.5 19.5t-8.5 19.5t-20.5 8v0zM652 276h-284q-12 0 -20.5 -8t-8.5 -19.5t8.5 -19.5t20.5 -8h284q12 0 20.5 8t8.5 19.5t-8.5 19.5t-20.5 8v0zM652 199h-284q-12 0 -20.5 -8t-8.5 -19.5t8.5 -19.5t20.5 -8h284
q12 0 20.5 8t8.5 19.5t-8.5 19.5t-20.5 8v0z" />
    <glyph glyph-name="icon-test" unicode="&#xe6ec;" 
d="M512 768q-104 0 -192.5 -51.5t-140 -140t-51.5 -193t51.5 -193t140 -140t192.5 -51.5t192.5 51.5t140 140t51.5 193t-51.5 193t-140 140t-192.5 51.5zM512 30q-96 0 -177.5 47.5t-128.5 128.5t-47 177t47 177.5t128.5 129t177.5 47.5t177.5 -47.5t128.5 -129t47 -177.5
t-47 -177t-128.5 -128.5t-177.5 -47.5zM528 385q0 79 24 119t68 40q43 0 67 -40t24 -119q0 -80 -24 -121t-67 -41q-44 0 -68 41t-24 121zM686 385q0 67 -18 102.5t-48 35.5q-31 0 -49 -35.5t-18 -102.5q0 -69 18 -105t49 -36q30 0 48 36t18 105zM323 269q21 -25 54 -25
q35 0 58.5 35t25.5 110q-34 -41 -76 -41q-39 0 -61.5 25.5t-22.5 71.5q0 43 25 71.5t59 28.5q46 0 73 -37.5t27 -106.5q0 -92 -31 -135t-78 -43q-40 0 -68 30zM461 413q-2 53 -21.5 82t-54.5 29q-25 0 -42 -22.5t-17 -56.5q0 -35 15.5 -56t46.5 -21q40 0 73 45z" />
    <glyph glyph-name="mingxi1" unicode="&#xe605;" 
d="M752 709h-43q-10 0 -18 -5.5t-8 -13.5q0 -9 8.5 -16.5t17.5 -7.5h43q20 0 32 -12t12 -32v-498q0 -19 -12 -31t-32 -12h-469q-21 0 -38 12.5t-17 30.5v498q0 20 12 32t32 12h54q17 0 17 24q0 19 -17 19h-54q-44 0 -66 -24t-22 -64v-492q0 -41 24.5 -66t67.5 -25h472
q44 0 68 23t24 68v492q0 39 -23 63.5t-65 24.5v0zM326 514q0 -9 7 -15.5t16 -6.5h327q9 0 16 6.5t7 15.5t-7 15.5t-16 6.5h-327q-9 0 -16 -6.5t-7 -15.5v0zM675 416h-326q-9 0 -16 -6.5t-7 -15.5t7 -15.5t16 -6.5h327q9 0 16 6.5t7 15.5q-1 10 -8 16t-16 6v0zM675 286h-326
q-9 0 -16 -6.5t-7 -15.5t7 -15.5t16 -6.5h327q9 0 16 6.5t7 15.5q-1 10 -8 16t-16 6v0zM437 655h152q13 0 23 11t10 26.5t-10 26.5t-24 11h-151q-14 0 -24 -11t-10 -26.5t10 -26.5t24 -11v0z" />
    <glyph glyph-name="305100000014" unicode="&#xe62a;" 
d="M517 283l94 -50l-94 -50v-60l236 118l-236 101v-59zM517 742v49h3q54 1 117.5 -6t133 -26t125.5 -47t92 -74.5t36 -102.5h-156q-11 71 -65 120t-127.5 69.5t-158.5 17.5zM423 233l87 53l7 -3v59l-23 10q0 1 -11.5 -0.5t-31 1t-44.5 4.5t-52.5 10.5t-54.5 18.5t-50 28
t-40 40.5t-25 55.5t-3 72q26 71 121.5 114.5t213.5 45.5v49q-60 -2 -118 -9.5t-121 -24.5t-113 -41.5t-88.5 -64.5t-52.5 -89q-3 -13 -3 -17v-23q4 -38 32 -75t75.5 -68t120 -50t156.5 -19l-125 -77l222 -117l15 7v60l-3 -2zM603 534l-88 -52l-6 1v-58l21 -8h19t47 -3.5
t66.5 -11t68.5 -24t62.5 -40.5t40.5 -63t10 -89q-28 -71 -123 -114t-212 -46v-48q60 2 118 9.5t121 24.5t112.5 41.5t88 64t52.5 88.5q3 10 3 17v22q-3 38 -31.5 75.5t-76.5 68t-120 50t-155 19.5l123 76l-221 118l-14 -8v-59l3 2zM509 483l-95 51l95 51v59l-236 -117
l236 -102v58zM509 26v-48h-4q-54 -1 -117 6t-133 26t-126 47t-92.5 74t-36.5 102h158q11 -70 64.5 -119t127 -69.5t159.5 -18.5z" />
    <glyph glyph-name="307584007998" unicode="&#xe62b;" horiz-adv-x="2986" 
d="M1709 762h-13v13l94 94q0 10 1.5 12t11.5 2h68v-14l-81 -107h-81v0zM1709 627h-13q0 10 1.5 12t11.5 2l81 94q0 10 1.5 11.5t11.5 1.5h68v-13l-68 -81h27v-174q0 -10 -1.5 -12t-11.5 -2h-54v161h-54zM1911 681v0q-6 0 -9.5 4t-3.5 9v0v41v0q0 5 3.5 9t9.5 4v0h309l14 -13
v-41l-14 -13h-54v-175q0 -18 -13.5 -29t-26.5 -11h-148q-10 0 -11.5 1.5t-1.5 11.5v27q0 10 1.5 12t11.5 2h108v161h-175zM1924 815v0q-5 0 -9 4t-4 9v1v40l13 14h283v-68h-283zM1319 856v0q6 0 9.5 -4t3.5 -9v-1v-40v0q0 -6 -3.5 -10t-9.5 -4v0h-108l-13 -13h-67l40 94
l13 13h68v-13l-14 -13h81zM1265 654h54v0q6 0 9.5 -4t3.5 -9v0v-41h-67v-80h41v0q5 0 9 -4t4 -9v-1v-26q0 -10 -1.5 -12t-11.5 -2h-68q-40 0 -40 41v93h-67v41l13 13h54v40h-54v0q-6 0 -10 4t-4 10h1v27v0q0 5 3.5 9t9.5 4v0h175q10 0 11.5 -1.5t1.5 -11.5v-27
q0 -10 -1.5 -11.5t-11.5 -1.5h-54v-41v0zM1427 520h53l14 -14v-26v-1q0 -5 -4 -9t-9 -4h-1h-80q-41 0 -41 41v335q0 13 11 27t30 14h201q19 0 30 -14t11 -27v-148q0 -40 -41 -40h-174v-134zM1575 829h-148v-41h148v41zM1427 735v-27h148v27h-148zM1575 627h80v0
q-5 0 -9 -3.5t-4 -9.5v0l-67 -67l13 -14v-13h54l13 -14v-26v-1q0 -5 -3.5 -9t-9.5 -4v0h-41q-18 0 -32 4.5t-20 9t-15 13.5l-67 134h68l13 -40l27 40v0zM565 681q-10 0 -11.5 1.5t-1.5 11.5v27q0 10 1.5 12t11.5 2h81v40v0q0 6 4 10t9 4v-1h54v-53h189v40l13 13h54v1
q6 0 9.5 -4t3.5 -10v0v-40h81v-54h-81v-27q0 -30 -14.5 -46.5t-65.5 -47.5h-27l13 -13q27 -14 81 -14h81v0q5 0 9 -4t4 -9v0v-27q0 -6 -4 -9.5t-9 -3.5v0h-81q-25 0 -38 1t-32 7t-38 19l-54 13l-40 -14q-38 -18 -56 -22t-52 -4h-80q-10 0 -12 1.5t-2 11.5v27q0 10 2 11.5
t12 1.5h80q14 0 41 7t40 7v13h-27q-42 32 -54.5 48.5t-12.5 45.5v27h-81zM767 883v0q0 5 4 9t9 4h1h67v-27h175q19 0 29.5 -16t10.5 -38v-40h-40h-1q-5 0 -9 4t-4 9v1v26h-390v-26v-1q0 -5 -4 -9t-9 -4v0h-41l-13 14v26q1 22 16.5 37.5t37.5 16.5h161v14zM713 654
q0 -20 5.5 -25t35.5 -15l54 -27l67 27q20 10 23.5 15t3.5 25v27h-189v-27v0zM13 547v0q-5 0 -9 3.5t-4 9.5v0v40v1q0 5 4 9t9 4v0h202v201h-188v0q-6 0 -10 4t-4 9v1v40v0q0 6 4 10t10 4v0h458v-68h-189v-201h202l13 -14v-40l-13 -13h-202v-67v-1q0 -5 -4 -9t-9 -4v0h-54
q-11 0 -12.5 2t-1.5 12v67h-202zM188 654v0q0 -6 -3.5 -9.5t-9.5 -3.5v0h-54q-7 0 -13.5 6.5t-13.5 6.5l-54 121v13h68q10 0 11.5 -1.5t1.5 -11.5l67 -121v0zM404 788h54q10 0 11.5 -1.5t1.5 -11.5h-13l-54 -121v0q0 -6 -4 -9.5t-9 -3.5h-1h-67v13l54 121q10 10 13.5 12
t13.5 2v-1zM2005 318q0 6 4 10t9.5 4t9.5 -4t4 -10v-94l108 108v0q6 0 9.5 -4t3.5 -9v-1v-13l-67 -67l67 -81q10 0 12 -1.5t2 -12.5q-13 -12 -30 -13l-11 13l-53 81l-41 -40v-41q0 -5 -3.5 -9t-9.5 -4t-9.5 4t-3.5 9v175h-1zM1777 318q12 13 30 14q8 0 9 -2t1 -12l94 -121
v121q13 13 30 14l11 -14v-175l-14 -13q-10 0 -13.5 1.5t-13.5 11.5l-94 135v-135l-14 -13q-17 2 -29 16l2 172h1zM1682 210l-40 81l-27 -81h67zM1548 157l80 161v0q0 6 4 9.5t10 3.5v0q9 0 13.5 -0.5t9 -3.5t4.5 -9l67 -161v0q6 0 10 -4t4 -10v0q-13 -12 -30 -14l2 1v0
q-5 0 -9 3.5t-4 9.5v0l-13 40h-95l-13 -40q-10 -10 -13.5 -11.5t-13.5 -1.5l-13 13v14v0zM1454 157q19 0 29.5 8t10.5 18q0 19 -8.5 23t-31.5 4h-54v-53h54zM1440 251q16 0 23 1t12 7t5 19q0 9 -8 11t-32 2h-40v-40h40zM1359 305q1 11 8.5 18.5t18.5 8.5h68q10 0 26.5 -8.5
t26.5 -18.5q13 -13 14 -30q0 -37 -41 -37q22 -11 31.5 -23t9.5 -31q0 -21 -19 -37.5t-48 -16.5h-68q-17 3 -29 16l2 159v0zM296 332h-40v-188q0 -10 1.5 -12t11.5 -2h27v202v0zM161 332h-121v-202h41v67h80q33 0 50.5 12.5t17.5 41.5v13q0 31 -18.5 49.5t-49.5 18.5v0z
M188 238v-1q0 -5 -3.5 -9t-9.5 -4v0h-94v67h107v-54v1zM969 332h-54l-94 -188v-1q0 -5 4 -9t9 -4v0h27v13l81 148l67 -148v0q0 -5 4 -9t9 -4h1h27q13 13 0 13l-81 188v1zM1278 332h-40v-135q-25 24 -73 75t-48 60h-40v-202h27q10 0 11.5 1.5t1.5 11.5v135q6 -6 36.5 -39.5
t57.5 -64t27 -31.5v-13h41v202h-1zM713 332h-80q-22 0 -45 -17.5t-23 -36.5v-81q0 -28 22.5 -47.5t45.5 -19.5h80q23 0 45.5 19.5t22.5 47.5v41h-108v-28h53v-40h-107v121h107v-27h54v14q0 19 -23 36.5t-44 17.5v0zM539 332h-41v-135q-7 7 -61 67.5t-60 67.5h-41v-202h41
v148q6 -6 36 -39.5t57.5 -64.5l27.5 -31v0q0 -5 4 -9t9 -4v0h28v202zM969 197h-54v-67h54v67z" />
    <glyph glyph-name="suzhouyinhang" unicode="&#xe609;" 
d="M223 90q-1 4 -4 5q-91 26 -155 110.5t-64 178.5t64 178.5t155 110.5q3 1 4 5q26 90 110.5 154t178.5 64t178.5 -64t110.5 -155q1 -3 5 -4q90 -26 154 -110.5t64 -178.5t-64 -178.5t-154 -110.5q-4 -1 -5 -4q-26 -91 -110.5 -155t-178.5 -64t-178.5 64t-110.5 154v0z
M243 125v0q-1 -2 -1 -4q0 -8 7 -8q3 0 5 2v0l20 14h1q45 29 114.5 50t123 21t123 -21t114.5 -50v0q11 -7 21 -14q2 -1 4 -1v0q8 0 8 7q0 3 -2 5l1 -2q-8 11 -15 22v1q-29 44 -50 113.5t-21 123.5t21 123.5t50 113.5v1q7 11 15 21l-1 -1q2 2 2 5q0 7 -8 7q-2 0 -4 -1l1 1
q-11 -8 -22 -15v0q-45 -29 -114.5 -50t-122.5 -21h-1v0q-54 0 -123.5 21t-113.5 50h-1q-11 7 -21 14h1q-2 1 -5 1q-7 0 -7 -7q0 -2 1 -4q8 -10 14 -21v-1q29 -44 50 -113.5t21 -122.5v-1v-1q0 -53 -21 -122.5t-50 -113.5l1 -1q-8 -11 -15 -21z" />
    <glyph glyph-name="weishiyong" unicode="&#xe628;" 
d="M512 599q52 0 97.5 -23.5t75.5 -63.5l27 -8q-31 52 -84 82.5t-116 30.5v0q-25 0 -58 -8.5t-55 -20.5l27 -7q41 18 86 18v0zM653 611l15 -12l5 18l16 10l-16 9l-5 19l-15 -13l-20 2l8 -17l-8 -18zM393 652l-15 10l-4 -19l-16 -12l18 -8l5 -18l14 14l19 1l-8 17l6 18z
M537 678l-11 15l-9 -17l-19 -7l14 -13v-19l17 9l19 -5l-3 19l12 15zM746 561l-16 11l-2 -19l-16 -11l18 -9l7 -18l13 14l19 -1l-9 17l5 18zM956 420l-811 217q-5 1 -10 1q-12 0 -22.5 -8t-13.5 -19l-58 -217q-1 -5 -1 -9q0 -12 8 -22.5t20 -14.5l811 -217q5 -1 10 -1
q12 0 22.5 8t13.5 19l58 217q1 5 1 9q0 12 -8 22.5t-20 14.5zM962 370l-53 -199q-2 -8 -10 -14t-17 -6q-4 0 -7 1l-793 212q-9 2 -15 10t-6 17q0 4 1 7l53 199q2 8 10 14t17 6q4 0 7 -1l793 -212q9 -2 15 -10t6 -17q0 -4 -1 -7zM512 720q115 0 205.5 -70t119.5 -179l20 -6
q-28 119 -124 196.5t-221 77.5q-75 0 -142 -29.5t-116 -82.5l20 -5q47 46 108.5 72t129.5 26zM598 187q-41 -18 -86 -18v0q-52 0 -97.5 23.5t-75.5 63.5l-27 8q31 -52 84 -82.5t116 -30.5v0q25 0 58 8.5t55 20.5zM397 148l-14 13l-5 -19l-17 -9l17 -10l5 -18l14 12l20 -2
l-8 18l8 17zM512 91l11 -15l9 17l19 6l-14 13v19l-17 -9l-19 5l3 -18l-11 -16zM276 208l15 -12l4 18l16 10l-17 10l-6 19l-14 -13l-19 2l8 -18l-6 -17zM512 48q-115 0 -205.5 70t-119.5 179l-20 6q28 -119 124 -196.5t221 -77.5q75 0 142 29.5t116 82.5l-20 5
q-47 -46 -108.5 -72t-129.5 -26zM647 117l15 -11l4 19l15 11l-17 9l-5 18l-14 -14l-19 -1l8 -17l-6 -18zM219.5 421q20.5 6 46.5 26l-41 11l-25 6l8 29l25 -7l52 -15l5 18l-40 12l-21 4l8 29l20 -6l40 -11l2 6l4 19l32 -9l-6 -18l-2 -7l40 -11l21 -5l-8 -28l-21 6l-39 11
l-5 -18l52 -15l25 -6l-8 -29l-25 7l-42 12q3 -7 6 -13.5t15.5 -24t36.5 -35.5q-7 -4 -11.5 -7t-13.5 -13q-19 18 -26 25q-6 8 -12 17t-13 24l-10 -36l-6 -25l-32 9l8 25l11 38q-13 -10 -24.5 -16t-23.5 -9t-33 -6q-1 7 -2.5 13.5t-2.5 7.5l-3 8q18 1 38.5 7zM501 483
q-3 -5 -6 -11l-2 -2l22 -7l24 -6l4 19l28 -8l-6 -19l28 -7l27 -7l-7 -27l-27 8l-28 8l-2 -8l21 -6l26 -7l-8 -26l-6 -22l-7 -28l-26 8l2 7l-21 6q0 -1 -1 -3t-1 -3q-1 -3 -4 -9.5t-5 -8.5l-3 -4q12 -8 24 -14q15 -8 37 -15q-10 -8 -12 -10.5l-10 -12.5q-20 8 -33 16
q-14 9 -26 19q-5 -2 -15 -4.5t-41 0.5q-2 11 -2 12.5t-2 11.5l-5 -20l-29 8l7 24l18 65q-7 -5 -15 -10q-2 12 -3.5 16.5l-5.5 16.5q9 4 18.5 11.5t18.5 19.5l16 22q6 10 8 13l4 8q8 -6 12.5 -8.5t13.5 -5.5zM474 340l-4 9q3 1 6.5 1.5t10.5 2.5l-21 6l8 28l6 22l7 27l26 -8
l16 -5l3 8l-24 7l-26 6l4 15q-4 -7 -10 -15l-32 -116q13 -4 22 -4.5t12 0.5l5 1q-7 10 -9 15zM503 340q4 6 6 11l2 4l-17 5l-1 -5v0q4 -9 10 -15zM501 384l16 -4l5 17l-16 5zM544 372l21 -5l4 17l-20 6zM602 274q7 5 13 11q5 5 11.5 14.5t12.5 23.5t8 23l20 70l5 21l23 -7
l115 -32l20 -5l-6 -22l-37 -130q-3 -11 -5.5 -15.5t-8 -8t-14 -3.5t-25.5 4v12q0 5 -1 10l-3 10q8 -2 16 -5t9.5 -1.5t5.5 12.5l6 22l-38 11l-10 -36l-5 -21l-29 8l7 21l10 35l-37 11q-3 -7 -7 -14q-3 -8 -10 -18.5t-12 -14.5l-11 -12q-4 6 -8 11t-15 15zM715 345l-35 9
l-7 -23l35 -10zM728 393l-35 10l-6 -23l35 -10zM780 327l-38 10l-6 -23l38 -11zM794 375l-38 11l-7 -24l38 -10z" />
    <glyph glyph-name="huaxiayinhang" unicode="&#xe61f;" 
d="M932 126q46 56 49 80l-3 9q-7 6 -22 -22q-1 -3 -3 -6q3 2 1.5 14t-13.5 2q-10 -12 -26 -29.5t-51 -48t-52 -32.5q-6 -4 -16.5 -9t-42.5 -16t-63.5 -15.5t-74.5 1.5t-79.5 26.5t-74.5 67.5t-65 116q-2 7 -5 18.5t-5.5 45.5t2.5 66.5t26 75t58 76.5q182 167 379 21
q7 8 17.5 19t33.5 26.5t34 9.5q1 0 2.5 1t5 4.5t5 7t2.5 9t-3 11.5l-33 42q-6 -1 -14.5 -2t-31 -0.5t-39.5 4.5t-30.5 17t-12.5 33v3t-0.5 7.5t-3 9.5t-8.5 9t-15 7.5t-24 2t-34 -5.5l-6.5 6.5t-9.5 12.5t-5 15l-3 8q-15 19 -93 6q-6 -1 -17.5 -3t-46.5 -15.5t-70.5 -34
t-86 -61.5t-97.5 -94l-42 -30q-109 -66 -123 10q-2 10 -2 24q-4 -4 -9.5 -11t-19 -27t-21 -39t-7 -44.5t13.5 -46.5q3 -3 7.5 -8t19.5 -15t32.5 -14.5t45.5 0.5t58 23q-2 -11 -3 -29t2.5 -70t15 -98.5t43 -102t78.5 -92.5q4 -4 11 -10t29.5 -21.5t46.5 -29.5t59.5 -28.5
t71 -22t79.5 -7.5t86 12q7 2 19 5.5t45 19t62 36.5t61 60.5t50 87.5v0q-4 -4 -9.5 -9t-17 -12.5t-17.5 -6.5zM549 236h283v216l-283 -2v-214v0z" />
    <glyph glyph-name="jiansheyinhang" unicode="&#xe607;" 
d="M962 352h-184q-13 0 -19 -2l-14 -11l-228 -232q-3 -2 -7 -2t-7 2l-242 247q-7 7 0 14l243 246q2 4 6.5 4t6.5 -4l213 -217q9 -10 19 -14q4 -1 10.5 1.5t10.5 5.5l3 4l99 102l-288 291q-63 64 -153 53q-114 -20 -205 -88.5t-142 -171.5t-51 -221q0 -100 38.5 -190.5
t103 -155t152.5 -103t183 -38.5q125 0 232.5 62t173.5 170t72 237q0 6 -6 10q-3 2 -8 2h-8zM661 794l252 -254l69 69q7 11 9 21q1 3 -1.5 6.5t-5.5 5.5l-3 3l-153 157q-41 42 -87.5 65t-84 26.5t-69 1t-48.5 -9.5l-18 -6q3 0 8 -0.5t20.5 -5.5t31 -13t38 -25t42.5 -41z" />
    <glyph glyph-name="zhongguoyinhang" unicode="&#xe6b2;" 
d="M1021 406q-2 51 -15 101t-30 85.5t-33.5 63.5t-28.5 41l-11 14q-49 57 -107.5 97t-107 56.5t-90.5 24.5t-66 7h-24q-66 2 -130 -15.5t-107.5 -42.5t-78 -52t-51 -44.5t-16.5 -18.5q-27 -34 -49 -70.5t-33 -62.5t-18 -51t-8.5 -33.5t-1.5 -12.5v0q-9 -38 -11.5 -77.5
t1 -71.5t10.5 -64.5t14.5 -54t16 -41.5t12 -26.5t4.5 -9.5v0q50 -91 108.5 -143t150.5 -95q89 -41 205.5 -38t201.5 46t140 96t100 139q28 52 41 115.5t13 100.5zM460 -14q-8 0 -21 2t-50.5 13.5t-71.5 29.5t-75.5 56.5t-70.5 89.5q-1 2 -4.5 7t-11.5 21.5t-15.5 34t-15 44
t-11 53t-2.5 60t9 65.5q6 29 15.5 55.5t19 46.5t21 39.5t21 31.5t21 25t17.5 19t14.5 13.5t9.5 8.5q20 19 86 50t115 31v-189h-79q-4 -1 -11.5 -2t-26 -8.5t-33 -20t-27 -37.5t-13.5 -59v-175q0 -4 1 -11.5t7.5 -26.5t17 -34t34 -29.5t54.5 -17.5h76v-186v0zM396 283
q-1 1 -5 -0.5t-9.5 3t-7.5 14.5v167q1 2 1.5 5t5 8t10.5 5h232q1 0 5.5 0.5t10 -4t6.5 -14.5v-162q0 -1 0.5 -3t0 -6t-1.5 -7t-4.5 -5t-8.5 -1h-235v0zM848 160q-35 -53 -92 -94t-106 -59t-87 -21v186h89q3 1 9.5 2.5t23 10.5t29.5 20.5t24.5 34t12.5 50.5v198q0 4 -2 11
t-10 24t-20 31t-35 25.5t-52 13.5h-69v189q5 -1 13.5 -2t34 -7.5t50 -16t56.5 -29t59 -43.5q101 -95 129 -224q5 -22 6 -52t-2 -71t-19 -88.5t-42 -88.5z" />
    <glyph glyph-name="touxiang" unicode="&#xe608;" 
d="M1 384v0q0 -104 40.5 -199t109 -163.5t163 -109t198.5 -40.5t199 40.5t163.5 109t109 163.5t40.5 199v0v0q0 104 -40.5 199t-109 163.5t-163.5 109t-199 40.5t-198.5 -40.5t-163 -109t-109 -163.5t-40.5 -199v0zM750 49q-37 14 -84 23v0q-26 5 -55 9q-44 -12 -98.5 -12
t-99.5 12q-30 -4 -59 -10q1 0 5 -1q1 -1 2 -1q-1 0 -2 1q-4 1 -5 1q-44 -9 -79 -22q0 1 -15 -7.5t-36.5 -24t-35.5 -29.5q141 -116 324 -116t324 116q-14 14 -35.5 29.5t-36 24t-14.5 7.5v0zM737 452q-10 3 -21 -3q1 64 -18 111h-372q-19 -49 -18 -116q-11 7 -21 3
q-13 -5 -17 -27t4.5 -47.5t24.5 -39.5t30 -9q25 -80 70 -135q7 -10 15 -18v-90h-0.5h-0.5q45 -12 99.5 -12t98.5 12v0h-1v90q8 8 16 18q45 55 69 135l5 0.5t12 3.5t14 8t14 16t9 26q9 25 5.5 47t-17.5 27zM698 558q-2 -47 18 -115q2 5 4.5 14.5t8.5 36t9 51t0.5 54t-12 51
t-32 36t-56.5 14.5l-63 17q-181 36 -248 -50q-57 -73 -19 -230q3 -11 8 -20q19 28 57 46t82.5 26.5t89.5 16t87 20t66 32.5zM321 -38h93v-16h-93v16zM512 69q2 -4 7 -10.5t24 -19t43 -16.5q3 4 7.5 10.5t11.5 22t6 25.5zM512 69q-3 -4 -8 -10.5t-24 -19t-42 -16.5
q-3 4 -7.5 10.5t-11.5 22t-6 25.5zM502 42v0q0 -9 9.5 -9t9.5 9v0v0q0 10 -9.5 10t-9.5 -10v0zM502 7v0q0 -10 9.5 -10t9.5 10v0q0 9 -9.5 9t-9.5 -9zM502 -30v0q0 -9 9.5 -9t9.5 9v0q0 9 -9.5 9t-9.5 -9z" />
    <glyph glyph-name="BOCM" unicode="&#xe606;" 
d="M798 138q-34 -1 -92.5 -3t-77.5 -2q-10 -45 -48.5 -70.5t-85 -24t-90 18.5t-68 60.5t-14.5 99.5q8 56 55 91t109 33t110 -45q16 -19 25 -39.5t14 -56.5q26 1 84 3t79 2q0 73 -30.5 135t-83 100t-116.5 56.5t-135.5 10t-134.5 -44.5q-50 -28 -83.5 -76t-47.5 -102
t-10 -113.5t24 -111.5t59.5 -95t91.5 -65v-6q-89 2 -171.5 61.5t-103.5 139.5l1 579q47 31 145.5 100.5t145.5 101.5q2 -1 5.5 -3t5.5 -3q-8 -112 3 -336q10 10 32.5 33.5t35 34.5t33.5 27t45 25.5t53 15.5q90 17 167 -9q71 -24 124 -71t80 -103t32 -120t-12 -122.5
t-58.5 -110.5t-102.5 -84q-3 0 -12.5 -6t-14.5 -7q0 1 1.5 3.5t4.5 7t4 8.5q4 12 11.5 40.5t11.5 42.5zM798 138z" />
    <glyph glyph-name="04030000" unicode="&#xe620;" 
d="M175 339l-4 -22h119l5 22h-120zM477 317l4 22h-135l-5 -22h136zM552 430l-18 -91l-6 -22l-18 -91h-187l-4 -21h219l29 134l18 91h263l-20 -91h-210l-47 -225h-272l-4 -22h305l29 134l18 91h177l-19 -91h-125l-28 -134l-20 -91h-408l47 225h-171l20 91l4 22l19 91h171
l47 224h187l24 114h347l-20 -91h-295l-4 -22l-19 -91h-187l-6 -22h221l4 22l20 91h262l-20 -91h-209l-24 -113h-272l-5 -21h187z" />
    <glyph glyph-name="huaqiyinhang" unicode="&#xe624;" horiz-adv-x="2336" 
d="M477 538l4 5l5 5l5 5l6 5l5 5l11 9l6 4l6 5l6 4l6 4l6 4l6 3l6 4l7 3l6 3l7 3l7 3l7 2l7 3l7 2l7 2l7 2l7 2l7 1l8 2l7 1l8 1h7l8 1h8h15h8l7 -1h8l7 -1l8 -1l7 -2l7 -1l8 -2l7 -2l7 -2l7 -2l7 -3l7 -2l6 -3l7 -3l7 -3l6 -3l6 -4l7 -3l6 -4l6 -4l6 -4l6 -5l5 -4l12 -9
l5 -5l5 -5l5 -5l5 -5l5 -5h98l-6 9l-6 10l-7 9l-7 9l-7 9l-7 8l-8 8l-8 8l-8 8l-8 8l-9 7l-9 7l-9 7l-9 6l-10 6l-10 6l-10 5l-10 6l-10 5l-10 4l-11 4l-11 4l-11 4l-11 3l-11 3l-12 2l-11 3l-12 1l-12 2l-12 1h-12l-12 1l-12 -1h-12l-12 -1l-12 -2l-11 -1l-12 -3l-11 -2
l-11 -3l-12 -3l-10 -4l-11 -4l-11 -4l-10 -4l-11 -5l-10 -6l-10 -5l-10 -6l-9 -6l-9 -6l-10 -7l-8 -7l-9 -7l-8 -8l-9 -8l-7 -8l-8 -8l-8 -8l-7 -9l-7 -9l-6 -9l-6 -10l-6 -9h98v0zM745 184h-3l-2 1h-3l-5 1h-2l-2 1l-2 1l-2 2h-1v1l-1 1l-1 1l-1 1v2l-1 1v1l-1 2v1v2v2
l-1 2v2v0v204h69v73h-69v113l-85 -38v-75h-68v-73h68v-231h1v-2v-3v-3l1 -2v-3l2 -5v-3l1 -3l3 -5l2 -5l4 -5l2 -2l2 -3l2 -2l3 -2l2 -2l3 -2l3 -2l3 -1l4 -2l3 -1l4 -1l4 -1l5 -1l4 -1h5l5 -1h5h31h9h4h4h3l4 1l3 1l4 1l3 1l3 1l3 1l3 2l2 2l3 2l2 3l3 3l2 4l2 3l2 5l2 4
l1 5l2 5l2 6l1 7l2 7l1 7l-27 13l-1 -1l-2 -2l-4 -3l-5 -3l-5 -4l-3 -1l-3 -2l-3 -1l-3 -1h-3l-1 -1h-1v0zM854 119h84v365h-84v-365zM432 119h84v365h-84v-365zM254 416l6 -1h4h3l3 -1h4l3 -1l6 -1l6 -2l3 -1l6 -3l3 -1l6 -3l3 -2l2 -1l3 -2l3 -2l2 -2l3 -2l2 -2l3 -2l4 -4
l2 -2l2 -3l2 -2l2 -3l2 -2l62 55l-3 4l-7 8l-8 7l-4 4l-8 7l-4 3l-4 3l-4 3l-5 3l-4 3l-10 5l-4 2l-5 3l-5 2l-5 2l-5 2l-5 2l-5 1l-11 3l-5 1l-6 1l-5 1l-6 1h-5l-6 1h-6h-5h-10l-10 -1l-10 -1l-9 -2l-9 -2l-9 -3l-9 -3l-9 -3l-9 -4l-8 -4l-8 -5l-8 -5l-7 -5l-8 -6l-7 -6
l-7 -6l-6 -7l-6 -7l-6 -7l-5 -8l-5 -8l-5 -8l-4 -8l-4 -9l-3 -8l-3 -9l-3 -9l-2 -10l-2 -9l-1 -10l-1 -10v-10v-10l1 -9l1 -10l2 -9l2 -10l3 -9l3 -9l3 -9l4 -8l4 -8l5 -9l5 -7l5 -8l6 -7l6 -7l6 -7l7 -6l7 -6l8 -6l7 -5l8 -5l8 -5l8 -4l9 -4l9 -4l9 -3l9 -2l9 -2l9 -2
l10 -1l10 -1h10h5h6h5l5 1l5 1h6l5 1l10 3l10 2l5 2l5 2l5 1l4 2l5 3l5 2l4 2l5 3l4 2l4 3l5 3l4 3l4 2l4 4l4 3l3 3l4 3l4 4l3 4l7 7l-62 55l-1 -3l-2 -2l-5 -4l-2 -2l-2 -2l-2 -2l-2 -1l-5 -4l-5 -3l-8 -4l-2 -2l-9 -3l-5 -2l-3 -1h-3l-3 -1l-9 -2h-3h-3l-3 -1h-3h-3h-6
l-5 1h-6l-5 1l-6 1l-5 2l-5 2l-5 2l-5 2l-5 2l-4 3l-5 3l-4 3l-4 3l-4 4l-4 3l-4 4l-3 4l-4 4l-3 5l-3 4l-2 5l-3 4l-2 5l-2 5l-1 6l-2 5l-1 5l-1 6l-1 5v6v5v6v6l1 5l1 6l1 5l2 5l1 5l2 5l2 5l3 5l2 4l3 5l3 4l4 4l3 4l4 4l4 4l4 3l4 4l4 3l5 3l4 2l5 3l5 2l5 2l5 2l5 1
l6 1l5 1l6 1h5l6 1v0v0zM2154 325l168 146h-49l-163 -138v284h-38v-483h38v183l176 -183h49zM1486 160h-5h-4l-4 1l-4 1h-4l-4 1l-4 1l-6 2l-4 2l-3 1l-3 2l-2 1l-3 2l-3 2l-2 2l-2 2l-3 3l-2 2l-1 3l-2 2l-2 3l-1 3l-2 3l-1 3l-1 4l-1 3v3l-1 4l-1 8v4v5v4l1 5l1 4l1 4l1 5
l2 3l2 4l3 4l2 3l3 3l4 3l3 3l4 3l4 3l5 2l5 2l5 2l5 2l6 2l6 2l7 1l6 2l7 1l7 1l8 1l8 1h8l8 1h18h10h23v-9v-8v-9v-7v-8l-1 -7l-1 -7l-1 -7l-2 -7l-1 -6l-2 -6l-2 -6l-2 -5l-3 -5l-3 -5l-3 -5l-3 -4l-3 -4l-4 -4l-4 -4l-4 -3l-4 -3l-5 -3l-4 -2l-5 -2l-5 -2l-6 -2l-6 -1
l-5 -1l-6 -1l-7 -1h-6zM1625 210v159v7v6l-1 6l-1 6l-1 6l-2 6l-1 5l-2 5l-2 5l-2 5l-3 4l-3 5l-3 4l-3 4l-3 4l-4 3l-4 3l-4 4l-4 3l-4 2l-5 3l-5 2l-5 2l-6 2l-5 2l-6 1l-6 1l-6 2h-7l-6 1l-7 1h-8h-13l-12 -2h-6l-6 -1l-6 -2l-5 -1l-5 -2l-10 -3l-5 -2l-4 -3l-5 -2l-4 -3
l-4 -3l-4 -3l-3 -3l-4 -3l-3 -4l-3 -4l-3 -4l-2 -4l-3 -4l-2 -5l-3 -4l-3 -10l-2 -5l-1 -6l-1 -6l-1 -5h41v3l1 4l2 6l2 6l3 6l1 3l2 2l2 2l2 3l2 2l2 2l3 2l2 2l3 2l3 1l3 2l3 1l3 2l3 1l4 1l3 1h4l4 1l4 1l8 1h4h9h10h8l8 -1l4 -1l3 -1l4 -1l3 -1l3 -2l3 -1l3 -2l3 -2
l3 -2l2 -2l3 -2l2 -3l2 -2l2 -3l2 -3l1 -3l2 -3l1 -3l1 -4l1 -4l1 -3l1 -4l1 -4v-4l1 -5v-4v-32h-39l-19 -1h-8l-9 -1h-8l-8 -1l-7 -1l-7 -1l-7 -1l-7 -1l-6 -1l-5 -1l-6 -2l-5 -1l-5 -2l-4 -1l-4 -2l-4 -2l-7 -4l-4 -2l-3 -2l-3 -3l-3 -2l-3 -3l-6 -5l-3 -2l-2 -3l-3 -3
l-2 -3l-2 -3l-2 -3l-4 -6l-2 -4l-1 -3l-1 -3l-2 -4l-1 -3l-1 -4l-2 -8v-4l-1 -4l-1 -4v-8v-6l1 -6l1 -5l1 -5l1 -5l1 -5l2 -5l2 -5l2 -4l2 -4l2 -4l3 -4l3 -4l3 -3l3 -4l3 -3l4 -3l4 -3l4 -2l4 -3l4 -2l5 -3l4 -1l5 -2l5 -2l6 -1l5 -2l6 -1l6 -1h6l6 -1h7h5h4l9 2h4l4 1l5 1
l4 1l4 1l3 1l4 1l11 4l3 1l6 3l4 2l3 2l2 1l3 2l3 2l3 2l2 2l3 3l2 2l2 2l2 3l3 2l2 3l3 5l3 6l3 -50h41l-1 9l-1 9l-1 10v9l-1 10v9l1 10v10v0zM1189 160h-7l-6 1l-7 1l-6 1l-6 1l-6 2l-5 2l-6 2l-5 3l-5 2l-4 4l-5 3l-4 4l-4 4l-4 4l-4 5l-3 4l-4 5l-3 6l-2 5l-3 6l-2 6
l-3 7l-2 7l-1 7l-2 7l-1 8l-1 8l-1 8l-1 8v9l-1 9l1 8v8l1 7l1 8l1 7l2 6l1 7l2 6l2 6l2 6l3 6l2 5l3 5l3 5l3 4l3 5l3 4l4 3l4 4l4 3l4 3l5 3l4 3l5 2l5 2l6 2l5 1l6 2l5 1h6l13 1h6l5 -1h6l5 -1l6 -2l5 -1l4 -2l5 -2l4 -3l5 -2l4 -3l4 -3l4 -3l3 -4l4 -4l3 -4l3 -4l3 -5
l3 -5l2 -5l2 -5l2 -6l3 -6l1 -6l2 -7l1 -6l2 -7l1 -7l1 -8l1 -8v-8l1 -8l-1 -9v-8l-1 -8l-1 -8l-1 -8l-1 -8l-2 -7l-1 -7l-2 -6l-2 -7l-2 -6l-2 -6l-3 -5l-2 -6l-3 -4l-3 -5l-3 -5l-3 -4l-4 -4l-3 -3l-4 -4l-4 -3l-4 -2l-4 -3l-5 -2l-4 -2l-5 -2l-5 -1l-5 -1l-5 -1l-5 -1h-6
v0zM1192 479h-5l-10 -1l-4 -1h-5l-4 -1l-4 -1l-5 -1l-8 -2l-4 -1l-4 -2l-7 -3l-4 -2l-4 -1l-3 -2l-4 -2l-3 -3l-3 -2l-3 -2l-3 -3l-3 -2l-6 -6l-3 -3l-3 -3l-2 -3l-3 -3l-2 -3l-3 -4l-2 -3l-3 2v196h-38v-411l-1 -4v-4v-5v-5l-1 -5v-6l-1 -7v-36h41v49l3 3l3 -4l2 -3l6 -6
l6 -6l3 -3l3 -3l3 -3l10 -7l3 -2l4 -2l7 -4l3 -2l4 -1l4 -2l4 -1l4 -2l8 -2l4 -1l4 -1l9 -1l8 -1h5l9 -1l8 1l8 1l7 1l7 1l7 2l7 2l6 3l6 2l6 4l6 3l5 4l6 4l5 4l4 5l5 5l4 5l4 6l4 6l4 6l3 6l3 7l3 8l3 7l2 8l2 8l2 9l2 9l2 9l1 9l1 10l1 10l1 11l-1 10l-1 10l-1 10l-1 10
l-2 9l-2 9l-2 8l-2 8l-2 8l-3 8l-3 7l-3 7l-4 7l-3 6l-4 6l-5 5l-4 6l-4 5l-5 4l-6 5l-5 4l-5 4l-6 3l-6 3l-7 3l-6 2l-7 2l-7 2l-7 1l-8 2h-7l-8 1v0zM1860 479h-5h-4l-8 -1l-5 -1h-4l-4 -1l-4 -1l-4 -1l-3 -1l-8 -3l-3 -1l-4 -2l-3 -1l-4 -2l-3 -2l-6 -4l-3 -3l-3 -2
l-3 -3l-3 -2l-3 -3l-2 -3l-3 -3l-2 -3l-3 -3l-2 -4l-3 -3l-2 -4l-2 -3v2l-3 50h-41l1 -7l1 -3v-4l1 -9v-4v-4v-306h41v193v7l1 7l2 13l1 6l1 5l1 6l2 6l2 5l2 5l2 4l2 5l2 4l3 5l3 4l3 3l3 4l3 3l3 3l4 3l4 2l3 3l5 2l4 2l4 2l5 1l5 2l4 1l5 1h6l5 1h6h5h5l4 -1l5 -1l5 -1
l4 -1l4 -1l4 -1l4 -2l4 -2l3 -2l3 -2l4 -2l3 -3l3 -2l2 -3l3 -3l2 -3l3 -3l2 -4l2 -3l2 -4l1 -4l2 -4l1 -4l1 -5l1 -5l1 -4l1 -5v-5l1 -6v-5v-217h41v209v8v8l-1 8l-1 7l-1 7l-2 7l-1 7l-2 6l-2 7l-2 6l-3 5l-2 6l-3 5l-3 5l-4 4l-3 5l-4 4l-4 4l-4 3l-4 4l-5 3l-5 3l-5 2
l-5 2l-6 2l-5 2l-6 2l-6 1l-7 1l-6 1l-7 1h-7zM477 538l4 5l5 5l5 5l6 5l5 5l11 9l6 4l6 5l6 4l6 4l6 4l6 3l6 4l7 3l6 3l7 3l7 3l7 2l7 3l7 2l7 2l7 2l7 2l7 1l8 2l7 1l8 1h7l8 1h8h15h8l7 -1h8l7 -1l8 -1l7 -2l7 -1l8 -2l7 -2l7 -2l7 -2l7 -3l7 -2l6 -3l7 -3l7 -3l6 -3
l6 -4l7 -3l6 -4l6 -4l6 -4l6 -5l5 -4l12 -9l5 -5l5 -5l5 -5l5 -5l5 -5h98l-6 9l-6 10l-7 9l-7 9l-7 9l-7 8l-8 8l-8 8l-8 8l-8 8l-9 7l-9 7l-9 7l-9 6l-10 6l-10 6l-10 5l-10 6l-10 5l-10 4l-11 4l-11 4l-11 4l-11 3l-11 3l-12 2l-11 3l-12 1l-12 2l-12 1h-12l-12 1l-12 -1
h-12l-12 -1l-12 -2l-11 -1l-12 -3l-11 -2l-11 -3l-12 -3l-10 -4l-11 -4l-11 -4l-10 -4l-11 -5l-10 -6l-10 -5l-10 -6l-9 -6l-9 -6l-10 -7l-8 -7l-9 -7l-8 -8l-9 -8l-7 -8l-8 -8l-8 -8l-7 -9l-7 -9l-6 -9l-6 -10l-6 -9h98v0z" />
    <glyph glyph-name="jinhuayinhang" unicode="&#xe62c;" 
d="M618 260l-110 -39l55 -98l-44 -51l-103 52l-33 -114h-66l-35 108l-101 -59l-46 48l48 99l-110 34l-4 64l113 37l-58 102l46 48l106 -51l25 113h68l36 -108l99 58l52 -47l-54 -102l114 -33zM507 464l-129 -162q3 -7 4 -14l203 3l-204 -17q-2 -8 -7 -14l150 -142l-162 131
q-7 -4 -15 -6l8 -206l-22 206q-7 1 -12 4l-142 -144l126 159q-3 5 -5 10l-198 3l197 19q2 9 7 16l-138 142l151 -131q8 5 18 5l3 199l14 -201q3 -1 6 -3zM945 549l-80 -36l48 -69l-30 -41l-79 31l-17 -86l-49 -5l-34 78l-70 -51l-38 33l29 77l-84 18l-8 47l82 35l-50 72
l31 39l82 -31l11 86l51 4l34 -77l69 49l42 -31l-33 -79l87 -17zM848 693l-85 -129q3 -5 4 -11l151 17l-151 -26q-1 -5 -3 -10l120 -97l-129 87q-5 -4 -12 -6l21 -152l-30 151l-8 2l-97 -116l83 126q-5 6 -7 14l-145 -17l145 27q1 6 4 11l-112 97l121 -87q6 5 14 6l-12 147
l24 -148q3 -1 5 -2z" />
    <glyph glyph-name="guanbi2fill-copy" unicode="&#xe733;" 
d="M512 885q-102 0 -195 -39.5t-160 -106.5t-106.5 -160t-39.5 -195t39.5 -195t106.5 -160t160 -106.5t195 -39.5t195 39.5t160 106.5t106.5 160t39.5 195t-39.5 195t-106.5 160t-160 106.5t-195 39.5zM717 230q10 -11 10 -26t-10.5 -25.5t-25.5 -10.5t-25 11l-154 154
l-155 -152q-10 -11 -25 -11t-25.5 10.5t-10.5 25.5t11 26l154 152l-153 154q-11 11 -11 26t10.5 25.5t25.5 10.5t25 -11l154 -154l155 152q10 11 25 11t25.5 -10.5t10.5 -25.5t-11 -25l-154 -153l154 -154v0z" />
  </font>
</defs>
</svg>
